<?xml version="1.0" standalone="no"?>
<!DOCTYPE svg PUBLIC "-//W3C//DTD SVG 1.1//EN" "http://www.w3.org/Graphics/SVG/1.1/DTD/svg11.dtd" >
<svg xmlns="http://www.w3.org/2000/svg">
	<defs>
		<font id="PetMe642Y">
			<font-face font-family="Pet Me 64 2Y"
					   units-per-em="1600"
					   ascent="1400"
					   descent="-200"
					   bbox="0 -200 800 1400"
					/>
			<missing-glyph horiz-adv-x="0" />
			
            <glyph glyph-name=" " unicode="&#x20;" horiz-adv-x="500" d=" M500,0 L300,0 L300,200 L500,200 M500,600 L300,600 L300,1400 L500,1400"/>
            <glyph glyph-name="!" unicode="&#x21;" horiz-adv-x="700" d=" M100,1400 L300,1400 L300,800 L100,800 M700,1400 L700,800 L500,800 L500,1400"/>
            <glyph glyph-name="&quot;" unicode="&#x22;" horiz-adv-x="800" d=" M100,1400 L300,1400 L300,1000 L500,1000 L500,1400 L700,1400 L700,1000 L800,1000 L800,800 L700,800 L700,600 L800,600 L800,400 L700,400 L700,0 L500,0 L500,400 L300,400 L300,0 L100,0 L100,400 L0,400 L0,600 L100,600 L100,800 L0,800 L0,1000 L100,1000 M300,600 L500,600 L500,800 L300,800"/>
            <glyph glyph-name="#" unicode="&#x23;" horiz-adv-x="700" d=" M700,400 L600,400 L600,200 L500,200 L500,0 L300,0 L300,200 L100,200 L100,400 L500,400 L500,600 L200,600 L200,800 L100,800 L100,1000 L200,1000 L200,1200 L300,1200 L300,1400 L500,1400 L500,1200 L700,1200 L700,1000 L300,1000 L300,800 L600,800 L600,600 L700,600"/>
            <glyph glyph-name="$" unicode="&#x24;" horiz-adv-x="700" d=" M100,1400 L300,1400 L300,1000 L100,1000 M700,400 L700,0 L500,0 L500,400 M200,0 L100,0 L100,400 L200,400 L200,600 L300,600 L300,800 L400,800 L400,1000 L500,1000 L500,1200 L600,1200 L600,1400 L700,1400 L700,1000 L600,1000 L600,800 L500,800 L500,600 L400,600 L400,400 L300,400 L300,200 L200,200"/>
            <glyph glyph-name="%" unicode="&#x25;" horiz-adv-x="800" d=" M100,1200 L200,1200 L200,1400 L600,1400 L600,1200 L700,1200 L700,1000 L600,1000 L600,800 L500,800 L500,600 L300,600 L300,200 L500,200 L500,600 L800,600 L800,400 L700,400 L700,200 L800,200 L800,0 L200,0 L200,200 L100,200 L100,600 L200,600 L200,1000 L100,1000 M500,1200 L300,1200 L300,1000 L500,1000"/>
            <glyph glyph-name="&amp;" unicode="&#x26;" horiz-adv-x="700" d=" M700,1400 L700,1200 L600,1200 L600,1000 L500,1000 L500,800 L300,800 L300,1000 L400,1000 L400,1200 L500,1200 L500,1400"/>
            <glyph glyph-name="'" unicode="&#x27;" horiz-adv-x="600" d=" M200,1000 L300,1000 L300,1200 L400,1200 L400,1400 L600,1400 L600,1200 L500,1200 L500,1000 L400,1000 L400,400 L500,400 L500,200 L600,200 L600,0 L400,0 L400,200 L300,200 L300,400 L200,400"/>
            <glyph glyph-name="(" unicode="&#x28;" horiz-adv-x="600" d=" M200,0 L200,200 L300,200 L300,400 L400,400 L400,1000 L300,1000 L300,1200 L200,1200 L200,1400 L400,1400 L400,1200 L500,1200 L500,1000 L600,1000 L600,400 L500,400 L500,200 L400,200 L400,0"/>
            <glyph glyph-name=")" unicode="&#x29;" horiz-adv-x="800" d=" M100,1200 L300,1200 L300,1000 L500,1000 L500,1200 L700,1200 L700,1000 L600,1000 L600,800 L800,800 L800,600 L600,600 L600,400 L700,400 L700,200 L500,200 L500,400 L300,400 L300,200 L100,200 L100,400 L200,400 L200,600 L0,600 L0,800 L200,800 L200,1000 L100,1000"/>
            <glyph glyph-name="*" unicode="&#x2A;" horiz-adv-x="700" d=" M100,600 L100,800 L300,800 L300,1200 L500,1200 L500,800 L700,800 L700,600 L500,600 L500,200 L300,200 L300,600"/>
            <glyph glyph-name="+" unicode="&#x2B;" horiz-adv-x="500" d=" M200,0 L300,0 L300,400 L500,400 L500,0 L400,0 L400,-200 L200,-200"/>
            <glyph glyph-name="," unicode="&#x2C;" horiz-adv-x="700" d=" M700,600 L100,600 L100,800 L700,800"/>
            <glyph glyph-name="-" unicode="&#x2D;" horiz-adv-x="500" d=" M500,0 L300,0 L300,400 L500,400"/>
            <glyph glyph-name="." unicode="&#x2E;" horiz-adv-x="800" d=" M100,0 L100,200 L200,200 L200,400 L300,400 L300,600 L400,600 L400,800 L500,800 L500,1000 L600,1000 L600,1200 L800,1200 L800,1000 L700,1000 L700,800 L600,800 L600,600 L500,600 L500,400 L400,400 L400,200 L300,200 L300,0"/>
            <glyph glyph-name="/" unicode="&#x2F;" horiz-adv-x="700" d=" M100,1200 L200,1200 L200,1400 L600,1400 L600,1200 L700,1200 L700,200 L600,200 L600,0 L200,0 L200,200 L100,200 M500,1200 L300,1200 L300,800 L400,800 L400,600 L300,600 L300,200 L500,200 L500,800 L400,800 L400,1000 L500,1000"/>
            <glyph glyph-name="0" unicode="&#x30;" horiz-adv-x="700" d=" M700,0 L100,0 L100,200 L300,200 L300,800 L200,800 L200,1000 L300,1000 L300,1400 L500,1400 L500,200 L700,200"/>
            <glyph glyph-name="1" unicode="&#x31;" horiz-adv-x="700" d=" M100,1200 L200,1200 L200,1400 L600,1400 L600,1200 L700,1200 L700,800 L600,800 L600,600 L400,600 L400,800 L500,800 L500,1200 L300,1200 L300,1000 L100,1000 M700,200 L700,0 L100,0 L100,400 L200,400 L200,600 L400,600 L400,400 L300,400 L300,200"/>
            <glyph glyph-name="2" unicode="&#x32;" horiz-adv-x="700" d=" M100,1200 L200,1200 L200,1400 L600,1400 L600,1200 L700,1200 L700,800 L600,800 L600,600 L700,600 L700,200 L600,200 L600,0 L200,0 L200,200 L100,200 L100,400 L300,400 L300,200 L500,200 L500,600 L300,600 L300,800 L500,800 L500,1200 L300,1200 L300,1000 L100,1000"/>
            <glyph glyph-name="3" unicode="&#x33;" horiz-adv-x="800" d=" M700,400 L700,0 L500,0 L500,400 L100,400 L100,800 L300,800 L300,600 L500,600 L500,800 L300,800 L300,1000 L400,1000 L400,1200 L500,1200 L500,1400 L700,1400 L700,600 L800,600 L800,400"/>
            <glyph glyph-name="4" unicode="&#x34;" horiz-adv-x="700" d=" M100,1400 L700,1400 L700,1200 L300,1200 L300,1000 L600,1000 L600,800 L700,800 L700,200 L600,200 L600,0 L200,0 L200,200 L100,200 L100,400 L300,400 L300,200 L500,200 L500,800 L100,800"/>
            <glyph glyph-name="5" unicode="&#x35;" horiz-adv-x="700" d=" M100,1200 L200,1200 L200,1400 L600,1400 L600,1200 L700,1200 L700,1000 L500,1000 L500,1200 L300,1200 L300,800 L600,800 L600,600 L700,600 L700,200 L600,200 L600,0 L200,0 L200,200 L100,200 M300,200 L500,200 L500,600 L300,600"/>
            <glyph glyph-name="6" unicode="&#x36;" horiz-adv-x="700" d=" M100,1400 L700,1400 L700,1000 L600,1000 L600,800 L500,800 L500,0 L300,0 L300,800 L400,800 L400,1000 L500,1000 L500,1200 L300,1200 L300,1000 L100,1000"/>
            <glyph glyph-name="7" unicode="&#x37;" horiz-adv-x="700" d=" M100,1200 L200,1200 L200,1400 L600,1400 L600,1200 L700,1200 L700,800 L600,800 L600,600 L700,600 L700,200 L600,200 L600,0 L200,0 L200,200 L100,200 L100,600 L200,600 L200,800 L100,800 M500,1200 L300,1200 L300,800 L500,800 M300,600 L300,200 L500,200 L500,600"/>
            <glyph glyph-name="8" unicode="&#x38;" horiz-adv-x="700" d=" M100,1200 L200,1200 L200,1400 L600,1400 L600,1200 L700,1200 L700,200 L600,200 L600,0 L200,0 L200,200 L100,200 L100,400 L300,400 L300,200 L500,200 L500,600 L200,600 L200,800 L100,800 M500,1200 L300,1200 L300,800 L500,800"/>
            <glyph glyph-name="9" unicode="&#x39;" horiz-adv-x="500" d=" M500,200 L300,200 L300,400 L500,400 M300,1000 L500,1000 L500,800 L300,800"/>
            <glyph glyph-name=":" unicode="&#x3A;" horiz-adv-x="500" d=" M200,0 L300,0 L300,400 L500,400 L500,0 L400,0 L400,-200 L200,-200 M300,1000 L500,1000 L500,800 L300,800"/>
            <glyph glyph-name=";" unicode="&#x3B;" horiz-adv-x="700" d=" M700,200 L700,0 L400,0 L400,200 L300,200 L300,400 L200,400 L200,600 L100,600 L100,800 L200,800 L200,1000 L300,1000 L300,1200 L400,1200 L400,1400 L700,1400 L700,1200 L500,1200 L500,1000 L400,1000 L400,800 L300,800 L300,600 L400,600 L400,400 L500,400 L500,200"/>
            <glyph glyph-name="&lt;" unicode="&#x3C;" horiz-adv-x="700" d=" M700,400 L100,400 L100,600 L700,600 M700,1000 L700,800 L100,800 L100,1000"/>
            <glyph glyph-name="=" unicode="&#x3D;" horiz-adv-x="700" d=" M100,1400 L400,1400 L400,1200 L500,1200 L500,1000 L600,1000 L600,800 L700,800 L700,600 L600,600 L600,400 L500,400 L500,200 L400,200 L400,0 L100,0 L100,200 L300,200 L300,400 L400,400 L400,600 L500,600 L500,800 L400,800 L400,1000 L300,1000 L300,1200 L100,1200"/>
            <glyph glyph-name="&gt;" unicode="&#x3E;" horiz-adv-x="700" d=" M100,1200 L200,1200 L200,1400 L600,1400 L600,1200 L700,1200 L700,800 L600,800 L600,600 L500,600 L500,400 L300,400 L300,600 L400,600 L400,800 L500,800 L500,1200 L300,1200 L300,1000 L100,1000 M500,0 L300,0 L300,200 L500,200"/>
            <glyph glyph-name="?" unicode="&#x3F;" horiz-adv-x="700" d=" M100,1200 L200,1200 L200,1400 L600,1400 L600,1200 L700,1200 L700,600 L400,600 L400,1000 L500,1000 L500,1200 L300,1200 L300,200 L600,200 L600,0 L200,0 L200,200 L100,200 M700,400 L700,200 L600,200 L600,400"/>
            <glyph glyph-name="@" unicode="&#x40;" horiz-adv-x="700" d=" M100,0 L100,1000 L200,1000 L200,1200 L300,1200 L300,1400 L500,1400 L500,1200 L600,1200 L600,1000 L700,1000 L700,0 L500,0 L500,600 L300,600 L300,0 M300,800 L500,800 L500,1000 L300,1000"/>
            <glyph glyph-name="A" unicode="&#x41;" horiz-adv-x="700" d=" M100,1400 L600,1400 L600,1200 L700,1200 L700,800 L600,800 L600,600 L700,600 L700,200 L600,200 L600,0 L100,0 M500,1200 L300,1200 L300,800 L500,800 M300,200 L500,200 L500,600 L300,600"/>
            <glyph glyph-name="B" unicode="&#x42;" horiz-adv-x="700" d=" M100,1200 L200,1200 L200,1400 L600,1400 L600,1200 L700,1200 L700,1000 L500,1000 L500,1200 L300,1200 L300,200 L500,200 L500,400 L700,400 L700,200 L600,200 L600,0 L200,0 L200,200 L100,200"/>
            <glyph glyph-name="C" unicode="&#x43;" horiz-adv-x="700" d=" M100,1400 L500,1400 L500,1200 L600,1200 L600,1000 L700,1000 L700,400 L600,400 L600,200 L500,200 L500,0 L100,0 M400,1200 L300,1200 L300,200 L400,200 L400,400 L500,400 L500,1000 L400,1000"/>
            <glyph glyph-name="D" unicode="&#x44;" horiz-adv-x="700" d=" M100,1400 L700,1400 L700,1200 L300,1200 L300,800 L500,800 L500,600 L300,600 L300,200 L700,200 L700,0 L100,0"/>
            <glyph glyph-name="E" unicode="&#x45;" horiz-adv-x="700" d=" M100,1400 L700,1400 L700,1200 L300,1200 L300,800 L500,800 L500,600 L300,600 L300,0 L100,0"/>
            <glyph glyph-name="F" unicode="&#x46;" horiz-adv-x="700" d=" M100,1200 L200,1200 L200,1400 L600,1400 L600,1200 L700,1200 L700,1000 L500,1000 L500,1200 L300,1200 L300,200 L500,200 L500,600 L400,600 L400,800 L700,800 L700,200 L600,200 L600,0 L200,0 L200,200 L100,200"/>
            <glyph glyph-name="G" unicode="&#x47;" horiz-adv-x="700" d=" M700,1400 L700,0 L500,0 L500,600 L300,600 L300,0 L100,0 L100,1400 L300,1400 L300,800 L500,800 L500,1400"/>
            <glyph glyph-name="H" unicode="&#x48;" horiz-adv-x="600" d=" M200,200 L300,200 L300,1200 L200,1200 L200,1400 L600,1400 L600,1200 L500,1200 L500,200 L600,200 L600,0 L200,0"/>
            <glyph glyph-name="I" unicode="&#x49;" horiz-adv-x="700" d=" M200,0 L200,200 L100,200 L100,400 L300,400 L300,200 L400,200 L400,1200 L300,1200 L300,1400 L700,1400 L700,1200 L600,1200 L600,200 L500,200 L500,0"/>
            <glyph glyph-name="J" unicode="&#x4A;" horiz-adv-x="700" d=" M100,1400 L300,1400 L300,1000 L400,1000 L400,1200 L500,1200 L500,1400 L700,1400 L700,1200 L600,1200 L600,1000 L500,1000 L500,800 L400,800 L400,600 L500,600 L500,400 L600,400 L600,200 L700,200 L700,0 L500,0 L500,200 L400,200 L400,400 L300,400 L300,0 L100,0"/>
            <glyph glyph-name="K" unicode="&#x4B;" horiz-adv-x="700" d=" M100,1400 L300,1400 L300,200 L700,200 L700,0 L100,0"/>
            <glyph glyph-name="L" unicode="&#x4C;" horiz-adv-x="800" d=" M100,1400 L300,1400 L300,1200 L400,1200 L400,1000 L500,1000 L500,1200 L600,1200 L600,1400 L800,1400 L800,0 L600,0 L600,800 L500,800 L500,600 L400,600 L400,800 L300,800 L300,0 L100,0"/>
            <glyph glyph-name="M" unicode="&#x4D;" horiz-adv-x="700" d=" M100,1400 L300,1400 L300,1200 L400,1200 L400,1000 L500,1000 L500,1400 L700,1400 L700,0 L500,0 L500,400 L400,400 L400,600 L300,600 L300,0 L100,0"/>
            <glyph glyph-name="N" unicode="&#x4E;" horiz-adv-x="700" d=" M100,1200 L200,1200 L200,1400 L600,1400 L600,1200 L700,1200 L700,200 L600,200 L600,0 L200,0 L200,200 L100,200 M500,1200 L300,1200 L300,200 L500,200"/>
            <glyph glyph-name="O" unicode="&#x4F;" horiz-adv-x="700" d=" M100,1400 L600,1400 L600,1200 L700,1200 L700,800 L600,800 L600,600 L300,600 L300,0 L100,0 M500,1200 L300,1200 L300,800 L500,800"/>
            <glyph glyph-name="P" unicode="&#x50;" horiz-adv-x="700" d=" M100,1200 L200,1200 L200,1400 L600,1400 L600,1200 L700,1200 L700,400 L600,400 L600,200 L700,200 L700,0 L400,0 L400,200 L200,200 L200,400 L100,400 M500,1200 L300,1200 L300,400 L500,400"/>
            <glyph glyph-name="Q" unicode="&#x51;" horiz-adv-x="700" d=" M100,1400 L600,1400 L600,1200 L700,1200 L700,800 L600,800 L600,600 L500,600 L500,400 L600,400 L600,200 L700,200 L700,0 L500,0 L500,200 L400,200 L400,400 L300,400 L300,0 L100,0 M500,1200 L300,1200 L300,800 L500,800"/>
            <glyph glyph-name="R" unicode="&#x52;" horiz-adv-x="700" d=" M100,1200 L200,1200 L200,1400 L600,1400 L600,1200 L700,1200 L700,1000 L500,1000 L500,1200 L300,1200 L300,800 L600,800 L600,600 L700,600 L700,200 L600,200 L600,0 L200,0 L200,200 L100,200 L100,400 L300,400 L300,200 L500,200 L500,600 L200,600 L200,800 L100,800"/>
            <glyph glyph-name="S" unicode="&#x53;" horiz-adv-x="700" d=" M100,1400 L700,1400 L700,1200 L500,1200 L500,0 L300,0 L300,1200 L100,1200"/>
            <glyph glyph-name="T" unicode="&#x54;" horiz-adv-x="700" d=" M100,1400 L300,1400 L300,200 L500,200 L500,1400 L700,1400 L700,200 L600,200 L600,0 L200,0 L200,200 L100,200"/>
            <glyph glyph-name="U" unicode="&#x55;" horiz-adv-x="700" d=" M100,1400 L300,1400 L300,400 L500,400 L500,1400 L700,1400 L700,400 L600,400 L600,200 L500,200 L500,0 L300,0 L300,200 L200,200 L200,400 L100,400"/>
            <glyph glyph-name="V" unicode="&#x56;" horiz-adv-x="800" d=" M100,1400 L300,1400 L300,600 L400,600 L400,800 L500,800 L500,600 L600,600 L600,1400 L800,1400 L800,0 L600,0 L600,200 L500,200 L500,400 L400,400 L400,200 L300,200 L300,0 L100,0"/>
            <glyph glyph-name="W" unicode="&#x57;" horiz-adv-x="700" d=" M100,1400 L300,1400 L300,1000 L500,1000 L500,1400 L700,1400 L700,1000 L600,1000 L600,800 L500,800 L500,600 L600,600 L600,400 L700,400 L700,0 L500,0 L500,400 L300,400 L300,0 L100,0 L100,400 L200,400 L200,600 L300,600 L300,800 L200,800 L200,1000 L100,1000"/>
            <glyph glyph-name="X" unicode="&#x58;" horiz-adv-x="700" d=" M100,1400 L300,1400 L300,800 L500,800 L500,1400 L700,1400 L700,800 L600,800 L600,600 L500,600 L500,0 L300,0 L300,600 L200,600 L200,800 L100,800"/>
            <glyph glyph-name="Y" unicode="&#x59;" horiz-adv-x="700" d=" M100,1400 L700,1400 L700,1000 L600,1000 L600,800 L500,800 L500,600 L400,600 L400,400 L300,400 L300,200 L700,200 L700,0 L100,0 L100,400 L200,400 L200,600 L300,600 L300,800 L400,800 L400,1000 L500,1000 L500,1200 L100,1200"/>
            <glyph glyph-name="Z" unicode="&#x5A;" horiz-adv-x="600" d=" M200,0 L200,1400 L600,1400 L600,1200 L400,1200 L400,200 L600,200 L600,0"/>
            <glyph glyph-name="[" unicode="&#x5B;" horiz-adv-x="800" d=" M100,1200 L300,1200 L300,1000 L400,1000 L400,800 L500,800 L500,600 L600,600 L600,400 L700,400 L700,200 L800,200 L800,0 L600,0 L600,200 L500,200 L500,400 L400,400 L400,600 L300,600 L300,800 L200,800 L200,1000 L100,1000"/>
            <glyph glyph-name="\" unicode="&#x5C;" horiz-adv-x="600" d=" M200,200 L400,200 L400,1200 L200,1200 L200,1400 L600,1400 L600,0 L200,0"/>
            <glyph glyph-name="]" unicode="&#x5D;" horiz-adv-x="700" d=" M700,600 L500,600 L500,800 L300,800 L300,600 L100,600 L100,800 L200,800 L200,1000 L300,1000 L300,1200 L500,1200 L500,1000 L600,1000 L600,800 L700,800"/>
            <glyph glyph-name="^" unicode="&#x5E;" horiz-adv-x="800" d=" M0,0 L800,0 L800,-200 L0,-200"/>
            <glyph glyph-name="_" unicode="&#x5F;" horiz-adv-x="600" d=" M200,1400 L400,1400 L400,1200 L500,1200 L500,1000 L600,1000 L600,800 L400,800 L400,1000 L300,1000 L300,1200 L200,1200"/>
            <glyph glyph-name="`" unicode="&#x60;" horiz-adv-x="700" d=" M200,1000 L600,1000 L600,800 L700,800 L700,0 L200,0 L200,200 L100,200 L100,400 L200,400 L200,600 L500,600 L500,800 L200,800 M300,200 L500,200 L500,400 L300,400"/>
            <glyph glyph-name="a" unicode="&#x61;" horiz-adv-x="700" d=" M100,1200 L300,1200 L300,800 L600,800 L600,600 L700,600 L700,200 L600,200 L600,0 L100,0 M300,600 L300,200 L500,200 L500,600"/>
            <glyph glyph-name="b" unicode="&#x62;" horiz-adv-x="600" d=" M200,800 L200,1000 L600,1000 L600,800 L300,800 L300,200 L600,200 L600,0 L200,0 L200,200 L100,200 L100,800"/>
            <glyph glyph-name="c" unicode="&#x63;" horiz-adv-x="700" d=" M200,0 L200,200 L100,200 L100,600 L200,600 L200,800 L500,800 L500,1200 L700,1200 L700,0 M300,600 L300,200 L500,200 L500,600"/>
            <glyph glyph-name="d" unicode="&#x64;" horiz-adv-x="700" d=" M700,400 L300,400 L300,200 L600,200 L600,0 L200,0 L200,200 L100,200 L100,800 L200,800 L200,1000 L600,1000 L600,800 L700,800 M300,800 L300,600 L500,600 L500,800"/>
            <glyph glyph-name="e" unicode="&#x65;" horiz-adv-x="700" d=" M700,600 L500,600 L500,0 L300,0 L300,600 L200,600 L200,800 L300,800 L300,1000 L400,1000 L400,1200 L700,1200 L700,1000 L500,1000 L500,800 L700,800"/>
            <glyph glyph-name="f" unicode="&#x66;" horiz-adv-x="700" d=" M100,0 L500,0 L500,200 L200,200 L200,400 L100,400 L100,800 L200,800 L200,1000 L700,1000 L700,0 L600,0 L600,-200 L100,-200 M300,800 L300,400 L500,400 L500,800"/>
            <glyph glyph-name="g" unicode="&#x67;" horiz-adv-x="700" d=" M100,1200 L300,1200 L300,800 L600,800 L600,600 L700,600 L700,0 L500,0 L500,600 L300,600 L300,0 L100,0"/>
            <glyph glyph-name="h" unicode="&#x68;" horiz-adv-x="600" d=" M200,0 L200,200 L300,200 L300,600 L200,600 L200,800 L500,800 L500,200 L600,200 L600,0 M500,1200 L500,1000 L300,1000 L300,1200"/>
            <glyph glyph-name="i" unicode="&#x69;" horiz-adv-x="700" d=" M700,1200 L700,1000 L500,1000 L500,1200 M700,0 L600,0 L600,-200 L200,-200 L200,0 L500,0 L500,800 L700,800"/>
            <glyph glyph-name="j" unicode="&#x6A;" horiz-adv-x="700" d=" M100,1200 L300,1200 L300,600 L400,600 L400,800 L600,800 L600,600 L500,600 L500,400 L600,400 L600,200 L700,200 L700,0 L500,0 L500,200 L400,200 L400,400 L300,400 L300,0 L100,0"/>
            <glyph glyph-name="k" unicode="&#x6B;" horiz-adv-x="600" d=" M200,1000 L200,1200 L500,1200 L500,200 L600,200 L600,0 L200,0 L200,200 L300,200 L300,1000"/>
            <glyph glyph-name="l" unicode="&#x6C;" horiz-adv-x="800" d=" M100,0 L100,1000 L300,1000 L300,800 L500,800 L500,1000 L700,1000 L700,800 L800,800 L800,0 L600,0 L600,400 L500,400 L500,200 L400,200 L400,400 L300,400 L300,0"/>
            <glyph glyph-name="m" unicode="&#x6D;" horiz-adv-x="700" d=" M700,0 L500,0 L500,800 L300,800 L300,0 L100,0 L100,1000 L600,1000 L600,800 L700,800"/>
            <glyph glyph-name="n" unicode="&#x6E;" horiz-adv-x="700" d=" M200,1000 L600,1000 L600,800 L700,800 L700,200 L600,200 L600,0 L200,0 L200,200 L100,200 L100,800 L200,800 M300,800 L300,200 L500,200 L500,800"/>
            <glyph glyph-name="o" unicode="&#x6F;" horiz-adv-x="700" d=" M700,400 L600,400 L600,200 L300,200 L300,-200 L100,-200 L100,1000 L600,1000 L600,800 L700,800 M300,800 L300,400 L500,400 L500,800"/>
            <glyph glyph-name="p" unicode="&#x70;" horiz-adv-x="700" d=" M700,-200 L500,-200 L500,200 L200,200 L200,400 L100,400 L100,800 L200,800 L200,1000 L700,1000 M300,800 L300,400 L500,400 L500,800"/>
            <glyph glyph-name="q" unicode="&#x71;" horiz-adv-x="700" d=" M100,0 L100,1000 L600,1000 L600,800 L700,800 L700,600 L500,600 L500,800 L300,800 L300,0"/>
            <glyph glyph-name="r" unicode="&#x72;" horiz-adv-x="700" d=" M700,400 L700,200 L600,200 L600,0 L100,0 L100,200 L500,200 L500,400 L200,400 L200,600 L100,600 L100,800 L200,800 L200,1000 L700,1000 L700,800 L300,800 L300,600 L600,600 L600,400"/>
            <glyph glyph-name="s" unicode="&#x73;" horiz-adv-x="700" d=" M700,200 L700,0 L400,0 L400,200 L300,200 L300,800 L100,800 L100,1000 L300,1000 L300,1200 L500,1200 L500,1000 L700,1000 L700,800 L500,800 L500,200"/>
            <glyph glyph-name="t" unicode="&#x74;" horiz-adv-x="700" d=" M700,0 L200,0 L200,200 L100,200 L100,1000 L300,1000 L300,200 L500,200 L500,1000 L700,1000"/>
            <glyph glyph-name="u" unicode="&#x75;" horiz-adv-x="700" d=" M700,400 L600,400 L600,200 L500,200 L500,0 L300,0 L300,200 L200,200 L200,400 L100,400 L100,1000 L300,1000 L300,400 L500,400 L500,1000 L700,1000"/>
            <glyph glyph-name="v" unicode="&#x76;" horiz-adv-x="800" d=" M700,400 L700,0 L500,0 L500,200 L400,200 L400,0 L200,0 L200,400 L100,400 L100,1000 L300,1000 L300,600 L400,600 L400,800 L500,800 L500,600 L600,600 L600,1000 L800,1000 L800,400"/>
            <glyph glyph-name="w" unicode="&#x77;" horiz-adv-x="700" d=" M700,200 L700,0 L500,0 L500,200 L300,200 L300,0 L100,0 L100,200 L200,200 L200,400 L300,400 L300,600 L200,600 L200,800 L100,800 L100,1000 L300,1000 L300,800 L500,800 L500,1000 L700,1000 L700,800 L600,800 L600,600 L500,600 L500,400 L600,400 L600,200"/>
            <glyph glyph-name="x" unicode="&#x78;" horiz-adv-x="700" d=" M100,0 L400,0 L400,200 L200,200 L200,400 L100,400 L100,1000 L300,1000 L300,400 L500,400 L500,1000 L700,1000 L700,200 L600,200 L600,0 L500,0 L500,-200 L100,-200"/>
            <glyph glyph-name="y" unicode="&#x79;" horiz-adv-x="700" d=" M100,0 L100,200 L200,200 L200,400 L300,400 L300,600 L400,600 L400,800 L100,800 L100,1000 L700,1000 L700,800 L600,800 L600,600 L500,600 L500,400 L400,400 L400,200 L700,200 L700,0"/>
            <glyph glyph-name="z" unicode="&#x7A;" horiz-adv-x="700" d=" M700,200 L700,0 L400,0 L400,200 L300,200 L300,600 L100,600 L100,800 L300,800 L300,1200 L400,1200 L400,1400 L700,1400 L700,1200 L500,1200 L500,800 L400,800 L400,600 L500,600 L500,200"/>
            <glyph glyph-name="{" unicode="&#x7B;" horiz-adv-x="500" d=" M500,-200 L300,-200 L300,1400 L500,1400"/>
            <glyph glyph-name="|" unicode="&#x7C;" horiz-adv-x="700" d=" M100,1400 L400,1400 L400,1200 L500,1200 L500,800 L700,800 L700,600 L500,600 L500,200 L400,200 L400,0 L100,0 L100,200 L300,200 L300,600 L400,600 L400,800 L300,800 L300,1200 L100,1200"/>
            <glyph glyph-name="}" unicode="&#x7D;" horiz-adv-x="800" d=" M100,1200 L200,1200 L200,1400 L500,1400 L500,1200 L600,1200 L600,1400 L800,1400 L800,1200 L700,1200 L700,1000 L400,1000 L400,1200 L300,1200 L300,1000 L100,1000"/>
            <glyph glyph-name=" " unicode="&#xA0;" horiz-adv-x="500" d=" M500,-200 L300,-200 L300,600 L500,600 M500,1200 L500,1000 L300,1000 L300,1200"/>
            <glyph glyph-name="¡" unicode="&#xA1;" horiz-adv-x="600" d=" M200,1000 L300,1000 L300,1200 L500,1200 L500,1000 L600,1000 L600,800 L300,800 L300,200 L600,200 L600,0 L500,0 L500,-200 L300,-200 L300,0 L200,0 L200,200 L100,200 L100,800 L200,800"/>
            <glyph glyph-name="¢" unicode="&#xA2;" horiz-adv-x="700" d=" M0,0 L0,200 L100,200 L100,400 L200,400 L200,600 L100,600 L100,800 L200,800 L200,1000 L300,1000 L300,1200 L400,1200 L400,800 L600,800 L600,600 L400,600 L400,400 L300,400 L300,200 L600,200 L600,0 M700,400 L700,200 L600,200 L600,400 M700,1000 L600,1000 L600,1200 L700,1200 M600,1200 L400,1200 L400,1400 L600,1400"/>
            <glyph glyph-name="£" unicode="&#xA3;" horiz-adv-x="700" d=" M100,1200 L300,1200 L300,1000 L500,1000 L500,1200 L700,1200 L700,1000 L600,1000 L600,800 L700,800 L700,400 L600,400 L600,200 L700,200 L700,0 L500,0 L500,200 L300,200 L300,0 L100,0 L100,200 L200,200 L200,400 L100,400 L100,800 L200,800 L200,1000 L100,1000 M300,800 L300,400 L500,400 L500,800"/>
            <glyph glyph-name="¤" unicode="&#xA4;" horiz-adv-x="700" d=" M100,1400 L300,1400 L300,800 L500,800 L500,1400 L700,1400 L700,800 L600,800 L600,600 L500,600 L500,400 L700,400 L700,200 L500,200 L500,0 L300,0 L300,200 L100,200 L100,400 L300,400 L300,600 L200,600 L200,800 L100,800"/>
            <glyph glyph-name="¥" unicode="&#xA5;" horiz-adv-x="500" d=" M500,-200 L300,-200 L300,400 L500,400 M500,1400 L500,800 L300,800 L300,1400"/>
            <glyph glyph-name="¦" unicode="&#xA6;" horiz-adv-x="700" d=" M100,1200 L200,1200 L200,1400 L600,1400 L600,1200 L300,1200 L300,1000 L600,1000 L600,800 L700,800 L700,600 L600,600 L600,400 L700,400 L700,200 L600,200 L600,0 L200,0 L200,200 L500,200 L500,400 L200,400 L200,600 L100,600 L100,800 L200,800 L200,1000 L100,1000 M300,600 L500,600 L500,800 L300,800"/>
            <glyph glyph-name="§" unicode="&#xA7;" horiz-adv-x="600" d=" M200,1400 L300,1400 L300,1200 L200,1200 M500,1400 L600,1400 L600,1200 L500,1200"/>
            <glyph glyph-name="¨" unicode="&#xA8;" horiz-adv-x="800" d=" M700,400 L700,200 L600,200 L600,400 M200,1000 L200,400 L100,400 L100,1000 M800,400 L700,400 L700,1000 L800,1000 M600,600 L600,400 L400,400 L400,600 M400,1000 L600,1000 L600,800 L400,800 M300,600 L300,800 L400,800 L400,600 M700,1000 L600,1000 L600,1200 L700,1200 M200,200 L200,400 L300,400 L300,200 M600,1200 L300,1200 L300,1400 L600,1400 M300,1200 L300,1000 L200,1000 L200,1200 M600,200 L600,0 L300,0 L300,200"/>
            <glyph glyph-name="©" unicode="&#xA9;" horiz-adv-x="700" d=" M700,400 L200,400 L200,600 L100,600 L100,800 L200,800 L200,1000 L500,1000 L500,1200 L200,1200 L200,1400 L600,1400 L600,1200 L700,1200 M300,800 L300,600 L500,600 L500,800"/>
            <glyph glyph-name="ª" unicode="&#xAA;" horiz-adv-x="800" d=" M700,400 L800,400 L800,200 L600,200 L600,400 L500,400 L500,600 L400,600 L400,800 L500,800 L500,1000 L600,1000 L600,1200 L800,1200 L800,1000 L700,1000 L700,800 L600,800 L600,600 L700,600 M200,1000 L300,1000 L300,1200 L500,1200 L500,1000 L400,1000 L400,800 L300,800 L300,600 L400,600 L400,400 L500,400 L500,200 L300,200 L300,400 L200,400 L200,600 L100,600 L100,800 L200,800"/>
            <glyph glyph-name="«" unicode="&#xAB;" horiz-adv-x="700" d=" M700,400 L500,400 L500,800 L100,800 L100,1000 L700,1000"/>
            <glyph glyph-name="¬" unicode="&#xAC;" horiz-adv-x="700" d=" M700,600 L100,600 L100,800 L700,800"/>
            <glyph glyph-name="­" unicode="&#xAD;" horiz-adv-x="800" d=" M700,400 L700,200 L600,200 L600,400 M200,1000 L200,400 L100,400 L100,1000 M800,400 L700,400 L700,1000 L800,1000 M600,600 L600,400 L500,400 L500,600 M700,1000 L600,1000 L600,1200 L700,1200 M200,200 L200,400 L300,400 L300,200 M500,600 L400,600 L400,400 L300,400 L300,1000 L600,1000 L600,800 L500,800 M600,1400 L600,1200 L300,1200 L300,1400 M300,1200 L300,1000 L200,1000 L200,1200 M600,200 L600,0 L300,0 L300,200"/>
            <glyph glyph-name="®" unicode="&#xAE;" horiz-adv-x="800" d=" M0,1400 L800,1400 L800,1200 L0,1200"/>
            <glyph glyph-name="¯" unicode="&#xAF;" horiz-adv-x="700" d=" M100,1200 L200,1200 L200,1400 L600,1400 L600,1200 L700,1200 L700,1000 L600,1000 L600,800 L200,800 L200,1000 L100,1000 M500,1200 L300,1200 L300,1000 L500,1000"/>
            <glyph glyph-name="°" unicode="&#xB0;" horiz-adv-x="700" d=" M100,0 L100,200 L300,200 L300,600 L100,600 L100,800 L300,800 L300,1200 L500,1200 L500,800 L700,800 L700,600 L500,600 L500,200 L700,200 L700,0"/>
            <glyph glyph-name="±" unicode="&#xB1;" horiz-adv-x="700" d=" M100,1200 L200,1200 L200,1400 L600,1400 L600,1200 L700,1200 L700,1000 L500,1000 L500,1200 L300,1200 L300,1000 L100,1000 M700,400 L100,400 L100,800 L300,800 L300,600 L700,600 M300,800 L300,1000 L500,1000 L500,800"/>
            <glyph glyph-name="²" unicode="&#xB2;" horiz-adv-x="700" d=" M100,1200 L200,1200 L200,1400 L600,1400 L600,1200 L700,1200 L700,1000 L600,1000 L600,800 L700,800 L700,600 L600,600 L600,400 L200,400 L200,600 L100,600 L100,800 L300,800 L300,600 L500,600 L500,800 L300,800 L300,1000 L500,1000 L500,1200 L300,1200 L300,1000 L100,1000"/>
            <glyph glyph-name="³" unicode="&#xB3;" horiz-adv-x="600" d=" M200,800 L200,1000 L300,1000 L300,1200 L400,1200 L400,1400 L600,1400 L600,1200 L500,1200 L500,1000 L400,1000 L400,800"/>
            <glyph glyph-name="´" unicode="&#xB4;" horiz-adv-x="700" d=" M0,-200 L0,200 L100,200 L100,1000 L300,1000 L300,200 L500,200 L500,1000 L700,1000 L700,0 L200,0 L200,-200"/>
            <glyph glyph-name="µ" unicode="&#xB5;" horiz-adv-x="800" d=" M100,1200 L100,1400 L800,1400 L800,0 L600,0 L600,600 L500,600 L500,0 L300,0 L300,600 L100,600 L100,800 L0,800 L0,1200 M200,1200 L200,800 L300,800 L300,1200 M500,1200 L500,800 L600,800 L600,1200"/>
            <glyph glyph-name="¶" unicode="&#xB6;" horiz-adv-x="500" d=" M300,800 L500,800 L500,400 L300,400"/>
            <glyph glyph-name="·" unicode="&#xB7;" horiz-adv-x="600" d=" M200,0 L400,0 L400,200 L600,200 L600,0 L500,0 L500,-200 L200,-200"/>
            <glyph glyph-name="¸" unicode="&#xB8;" horiz-adv-x="700" d=" M700,400 L100,400 L100,600 L300,600 L300,800 L200,800 L200,1000 L300,1000 L300,1400 L500,1400 L500,600 L700,600"/>
            <glyph glyph-name="¹" unicode="&#xB9;" horiz-adv-x="700" d=" M100,1200 L200,1200 L200,1400 L600,1400 L600,1200 L700,1200 L700,600 L600,600 L600,400 L200,400 L200,600 L100,600 M500,1200 L300,1200 L300,600 L500,600"/>
            <glyph glyph-name="º" unicode="&#xBA;" horiz-adv-x="800" d=" M100,1200 L300,1200 L300,1000 L400,1000 L400,800 L500,800 L500,600 L400,600 L400,400 L300,400 L300,200 L100,200 L100,400 L200,400 L200,600 L300,600 L300,800 L200,800 L200,1000 L100,1000 M700,400 L600,400 L600,200 L400,200 L400,400 L500,400 L500,600 L600,600 L600,800 L500,800 L500,1000 L400,1000 L400,1200 L600,1200 L600,1000 L700,1000 L700,800 L800,800 L800,600 L700,600"/>
            <glyph glyph-name="»" unicode="&#xBB;" horiz-adv-x="700" d=" M100,1400 L300,1400 L300,800 L100,800 M700,400 L700,0 L600,0 L600,200 L500,200 L500,600 L600,600 L600,400 M200,0 L100,0 L100,400 L200,400 L200,600 L300,600 L300,800 L400,800 L400,1000 L500,1000 L500,1200 L600,1200 L600,1400 L700,1400 L700,1000 L600,1000 L600,800 L500,800 L500,600 L400,600 L400,400 L300,400 L300,200 L200,200"/>
            <glyph glyph-name="¼" unicode="&#xBC;" horiz-adv-x="700" d=" M100,1400 L300,1400 L300,800 L100,800 M200,0 L100,0 L100,400 L200,400 L200,600 L300,600 L300,800 L400,800 L400,1000 L500,1000 L500,1200 L600,1200 L600,1400 L700,1400 L700,1000 L600,1000 L600,800 L500,800 L500,600 L400,600 L400,400 L300,400 L300,200 L200,200 M700,0 L500,0 L500,200 L600,200 L600,400 L500,400 L500,600 L700,600"/>
            <glyph glyph-name="½" unicode="&#xBD;" horiz-adv-x="700" d=" M100,1400 L200,1400 L200,1200 L100,1200 M700,400 L700,0 L600,0 L600,200 L500,200 L500,600 L600,600 L600,400 M200,1000 L200,800 L100,800 L100,1000 M200,0 L100,0 L100,400 L200,400 L200,600 L300,600 L300,800 L400,800 L400,1000 L500,1000 L500,1200 L600,1200 L600,1400 L700,1400 L700,1000 L600,1000 L600,800 L500,800 L500,600 L400,600 L400,400 L300,400 L300,200 L200,200 M300,1200 L300,1000 L200,1000 L200,1200"/>
            <glyph glyph-name="¾" unicode="&#xBE;" horiz-adv-x="700" d=" M100,0 L100,400 L200,400 L200,600 L300,600 L300,800 L500,800 L500,600 L400,600 L400,400 L300,400 L300,0 L500,0 L500,200 L700,200 L700,0 L600,0 L600,-200 L200,-200 L200,0 M500,1200 L500,1000 L300,1000 L300,1200"/>
            <glyph glyph-name="¿" unicode="&#xBF;" horiz-adv-x="700" d=" M100,0 L100,800 L200,800 L200,1000 L300,1000 L300,1200 L200,1200 L200,1400 L400,1400 L400,1200 L500,1200 L500,1000 L600,1000 L600,800 L700,800 L700,0 L500,0 L500,400 L300,400 L300,0 M300,800 L300,600 L500,600 L500,800"/>
            <glyph glyph-name="À" unicode="&#xC0;" horiz-adv-x="700" d=" M100,0 L100,800 L200,800 L200,1000 L300,1000 L300,1200 L400,1200 L400,1400 L600,1400 L600,1200 L500,1200 L500,1000 L600,1000 L600,800 L700,800 L700,0 L500,0 L500,400 L300,400 L300,0 M300,800 L300,600 L500,600 L500,800"/>
            <glyph glyph-name="Á" unicode="&#xC1;" horiz-adv-x="700" d=" M100,1200 L200,1200 L200,1400 L600,1400 L600,1200 L700,1200 L700,1000 L600,1000 L600,800 L700,800 L700,0 L500,0 L500,400 L300,400 L300,0 L100,0 L100,800 L200,800 L200,1000 L100,1000 M500,1200 L300,1200 L300,1000 L500,1000 M300,600 L500,600 L500,800 L300,800"/>
            <glyph glyph-name="Â" unicode="&#xC2;" horiz-adv-x="800" d=" M100,1200 L200,1200 L200,1400 L500,1400 L500,1200 L600,1200 L600,1400 L800,1400 L800,1200 L700,1200 L700,1000 L600,1000 L600,800 L700,800 L700,0 L500,0 L500,400 L300,400 L300,0 L100,0 L100,800 L200,800 L200,1000 L100,1000 M400,1000 L400,1200 L300,1200 L300,1000 M300,600 L500,600 L500,800 L300,800"/>
            <glyph glyph-name="Ã" unicode="&#xC3;" horiz-adv-x="700" d=" M100,1400 L200,1400 L200,1200 L100,1200 M200,1000 L300,1000 L300,1200 L500,1200 L500,1000 L600,1000 L600,800 L700,800 L700,0 L500,0 L500,400 L300,400 L300,0 L100,0 L100,800 L200,800 M300,600 L500,600 L500,800 L300,800 M600,1400 L700,1400 L700,1200 L600,1200"/>
            <glyph glyph-name="Ä" unicode="&#xC4;" horiz-adv-x="700" d=" M100,0 L100,800 L200,800 L200,1200 L300,1200 L300,1000 L500,1000 L500,1200 L600,1200 L600,800 L700,800 L700,0 L500,0 L500,400 L300,400 L300,0 M500,1200 L300,1200 L300,1400 L500,1400 M300,800 L300,600 L500,600 L500,800"/>
            <glyph glyph-name="Å" unicode="&#xC5;" horiz-adv-x="700" d=" M100,0 L100,1000 L200,1000 L200,1200 L300,1200 L300,1400 L700,1400 L700,1200 L600,1200 L600,800 L700,800 L700,600 L600,600 L600,200 L700,200 L700,0 L400,0 L400,600 L300,600 L300,0 M300,800 L400,800 L400,1000 L300,1000"/>
            <glyph glyph-name="Æ" unicode="&#xC6;" horiz-adv-x="700" d=" M100,1200 L200,1200 L200,1400 L600,1400 L600,1200 L700,1200 L700,1000 L500,1000 L500,1200 L300,1200 L300,400 L500,400 L500,600 L700,600 L700,400 L600,400 L600,200 L500,200 L500,0 L400,0 L400,-200 L100,-200 L100,0 L300,0 L300,200 L200,200 L200,400 L100,400"/>
            <glyph glyph-name="Ç" unicode="&#xC7;" horiz-adv-x="700" d=" M100,0 L100,1000 L300,1000 L300,1200 L200,1200 L200,1400 L400,1400 L400,1200 L500,1200 L500,1000 L700,1000 L700,800 L300,800 L300,600 L500,600 L500,400 L300,400 L300,200 L700,200 L700,0"/>
            <glyph glyph-name="È" unicode="&#xC8;" horiz-adv-x="700" d=" M100,0 L100,1000 L300,1000 L300,1200 L400,1200 L400,1400 L600,1400 L600,1200 L500,1200 L500,1000 L700,1000 L700,800 L300,800 L300,600 L500,600 L500,400 L300,400 L300,200 L700,200 L700,0"/>
            <glyph glyph-name="É" unicode="&#xC9;" horiz-adv-x="700" d=" M100,0 L100,1000 L200,1000 L200,1200 L300,1200 L300,1400 L600,1400 L600,1200 L700,1200 L700,800 L300,800 L300,600 L500,600 L500,400 L300,400 L300,200 L700,200 L700,0 M400,1200 L400,1000 L500,1000 L500,1200"/>
            <glyph glyph-name="Ê" unicode="&#xCA;" horiz-adv-x="700" d=" M100,0 L100,1000 L700,1000 L700,800 L300,800 L300,600 L500,600 L500,400 L300,400 L300,200 L700,200 L700,0 M200,1200 L200,1400 L300,1400 L300,1200 M500,1400 L600,1400 L600,1200 L500,1200"/>
            <glyph glyph-name="Ë" unicode="&#xCB;" horiz-adv-x="600" d=" M200,1000 L300,1000 L300,1200 L200,1200 L200,1400 L400,1400 L400,1200 L500,1200 L500,1000 L600,1000 L600,800 L500,800 L500,200 L600,200 L600,0 L200,0 L200,200 L300,200 L300,800 L200,800"/>
            <glyph glyph-name="Ì" unicode="&#xCC;" horiz-adv-x="600" d=" M200,1000 L300,1000 L300,1200 L400,1200 L400,1400 L600,1400 L600,1200 L500,1200 L500,1000 L600,1000 L600,800 L500,800 L500,200 L600,200 L600,0 L200,0 L200,200 L300,200 L300,800 L200,800"/>
            <glyph glyph-name="Í" unicode="&#xCD;" horiz-adv-x="700" d=" M200,0 L200,200 L300,200 L300,800 L200,800 L200,1200 L300,1200 L300,1400 L600,1400 L600,1200 L700,1200 L700,1000 L600,1000 L600,800 L500,800 L500,200 L600,200 L600,0 M400,1200 L400,1000 L500,1000 L500,1200"/>
            <glyph glyph-name="Î" unicode="&#xCE;" horiz-adv-x="600" d=" M200,1000 L600,1000 L600,800 L500,800 L500,200 L600,200 L600,0 L200,0 L200,200 L300,200 L300,800 L200,800 M200,1400 L300,1400 L300,1200 L200,1200 M500,1400 L600,1400 L600,1200 L500,1200"/>
            <glyph glyph-name="Ï" unicode="&#xCF;" horiz-adv-x="800" d=" M700,400 L700,200 L600,200 L600,0 L200,0 L200,600 L100,600 L100,800 L200,800 L200,1400 L600,1400 L600,1200 L700,1200 L700,1000 L800,1000 L800,400 M500,1200 L400,1200 L400,800 L500,800 L500,600 L400,600 L400,200 L500,200 L500,400 L600,400 L600,1000 L500,1000"/>
            <glyph glyph-name="Ð" unicode="&#xD0;" horiz-adv-x="800" d=" M100,1200 L200,1200 L200,1400 L500,1400 L500,1200 L600,1200 L600,1400 L800,1400 L800,1200 L700,1200 L700,0 L500,0 L500,200 L400,200 L400,400 L300,400 L300,0 L100,0 M400,1000 L400,1200 L300,1200 L300,1000 M400,800 L500,800 L500,1000 L400,1000"/>
            <glyph glyph-name="Ñ" unicode="&#xD1;" horiz-adv-x="700" d=" M700,200 L600,200 L600,0 L200,0 L200,200 L100,200 L100,800 L200,800 L200,1000 L300,1000 L300,1200 L200,1200 L200,1400 L400,1400 L400,1200 L500,1200 L500,1000 L600,1000 L600,800 L700,800 M300,800 L300,200 L500,200 L500,800"/>
            <glyph glyph-name="Ò" unicode="&#xD2;" horiz-adv-x="700" d=" M700,200 L600,200 L600,0 L200,0 L200,200 L100,200 L100,800 L200,800 L200,1000 L300,1000 L300,1200 L400,1200 L400,1400 L600,1400 L600,1200 L500,1200 L500,1000 L600,1000 L600,800 L700,800 M300,800 L300,200 L500,200 L500,800"/>
            <glyph glyph-name="Ó" unicode="&#xD3;" horiz-adv-x="700" d=" M100,1200 L200,1200 L200,1400 L600,1400 L600,1200 L700,1200 L700,1000 L600,1000 L600,800 L700,800 L700,200 L600,200 L600,0 L200,0 L200,200 L100,200 L100,800 L200,800 L200,1000 L100,1000 M500,1200 L300,1200 L300,1000 L500,1000 M300,800 L300,200 L500,200 L500,800"/>
            <glyph glyph-name="Ô" unicode="&#xD4;" horiz-adv-x="800" d=" M100,1200 L200,1200 L200,1400 L500,1400 L500,1200 L600,1200 L600,1400 L800,1400 L800,1200 L700,1200 L700,1000 L600,1000 L600,800 L700,800 L700,200 L600,200 L600,0 L200,0 L200,200 L100,200 L100,800 L200,800 L200,1000 L100,1000 M400,1000 L400,1200 L300,1200 L300,1000 M300,800 L300,200 L500,200 L500,800"/>
            <glyph glyph-name="Õ" unicode="&#xD5;" horiz-adv-x="700" d=" M100,1400 L200,1400 L200,1200 L100,1200 M700,200 L600,200 L600,0 L200,0 L200,200 L100,200 L100,1000 L200,1000 L200,1200 L600,1200 L600,1000 L700,1000 M300,200 L500,200 L500,1000 L300,1000 M700,1400 L700,1200 L600,1200 L600,1400"/>
            <glyph glyph-name="Ö" unicode="&#xD6;" horiz-adv-x="700" d=" M100,1200 L300,1200 L300,1000 L500,1000 L500,1200 L700,1200 L700,1000 L600,1000 L600,800 L500,800 L500,600 L600,600 L600,400 L700,400 L700,200 L500,200 L500,400 L300,400 L300,200 L100,200 L100,400 L200,400 L200,600 L300,600 L300,800 L200,800 L200,1000 L100,1000"/>
            <glyph glyph-name="×" unicode="&#xD7;" horiz-adv-x="700" d=" M100,1200 L200,1200 L200,1400 L600,1400 L600,1200 L700,1200 L700,200 L600,200 L600,0 L200,0 L200,200 L100,200 M500,1200 L300,1200 L300,800 L400,800 L400,1000 L500,1000 M300,200 L500,200 L500,600 L400,600 L400,400 L300,400"/>
            <glyph glyph-name="Ø" unicode="&#xD8;" horiz-adv-x="700" d=" M700,200 L600,200 L600,0 L200,0 L200,200 L100,200 L100,1000 L300,1000 L300,200 L500,200 L500,1000 L700,1000 M200,1400 L400,1400 L400,1200 L500,1200 L500,1000 L300,1000 L300,1200 L200,1200"/>
            <glyph glyph-name="Ù" unicode="&#xD9;" horiz-adv-x="700" d=" M700,200 L600,200 L600,0 L200,0 L200,200 L100,200 L100,1000 L300,1000 L300,200 L500,200 L500,1000 L700,1000 M400,1400 L600,1400 L600,1200 L500,1200 L500,1000 L300,1000 L300,1200 L400,1200"/>
            <glyph glyph-name="Ú" unicode="&#xDA;" horiz-adv-x="700" d=" M700,200 L600,200 L600,0 L200,0 L200,200 L100,200 L100,1000 L200,1000 L200,1200 L300,1200 L300,1400 L600,1400 L600,1200 L700,1200 M400,1200 L400,1000 L300,1000 L300,200 L500,200 L500,1200"/>
            <glyph glyph-name="Û" unicode="&#xDB;" horiz-adv-x="700" d=" M700,200 L600,200 L600,0 L200,0 L200,200 L100,200 L100,1000 L300,1000 L300,200 L500,200 L500,1000 L700,1000 M200,1400 L300,1400 L300,1200 L200,1200 M500,1400 L600,1400 L600,1200 L500,1200"/>
            <glyph glyph-name="Ü" unicode="&#xDC;" horiz-adv-x="700" d=" M700,600 L600,600 L600,400 L500,400 L500,0 L300,0 L300,400 L200,400 L200,600 L100,600 L100,1000 L300,1000 L300,600 L500,600 L500,1000 L700,1000 M400,1200 L400,1400 L600,1400 L600,1200 L500,1200 L500,1000 L300,1000 L300,1200"/>
            <glyph glyph-name="Ý" unicode="&#xDD;" horiz-adv-x="700" d=" M100,1400 L300,1400 L300,1200 L600,1200 L600,1000 L700,1000 L700,400 L600,400 L600,200 L300,200 L300,0 L100,0 M500,1000 L300,1000 L300,400 L500,400"/>
            <glyph glyph-name="Þ" unicode="&#xDE;" horiz-adv-x="700" d=" M100,1200 L200,1200 L200,1400 L600,1400 L600,1200 L700,1200 L700,800 L600,800 L600,600 L700,600 L700,200 L600,200 L600,0 L400,0 L400,200 L500,200 L500,600 L400,600 L400,800 L500,800 L500,1200 L300,1200 L300,0 L100,0"/>
            <glyph glyph-name="ß" unicode="&#xDF;" horiz-adv-x="700" d=" M200,1000 L300,1000 L300,1200 L200,1200 L200,1400 L400,1400 L400,1200 L500,1200 L500,1000 L600,1000 L600,800 L700,800 L700,0 L200,0 L200,200 L100,200 L100,400 L200,400 L200,600 L500,600 L500,800 L200,800 M300,200 L500,200 L500,400 L300,400"/>
            <glyph glyph-name="à" unicode="&#xE0;" horiz-adv-x="700" d=" M200,1000 L300,1000 L300,1200 L400,1200 L400,1400 L600,1400 L600,1200 L500,1200 L500,1000 L600,1000 L600,800 L700,800 L700,0 L200,0 L200,200 L100,200 L100,400 L200,400 L200,600 L500,600 L500,800 L200,800 M300,200 L500,200 L500,400 L300,400"/>
            <glyph glyph-name="á" unicode="&#xE1;" horiz-adv-x="700" d=" M700,800 L700,0 L200,0 L200,200 L100,200 L100,400 L200,400 L200,600 L500,600 L500,800 L200,800 L200,1200 L300,1200 L300,1400 L600,1400 L600,1200 L700,1200 L700,1000 L600,1000 L600,800 M500,1200 L400,1200 L400,1000 L500,1000 M300,200 L500,200 L500,400 L300,400"/>
            <glyph glyph-name="â" unicode="&#xE2;" horiz-adv-x="800" d=" M100,1200 L200,1200 L200,1400 L500,1400 L500,1200 L600,1200 L600,1400 L800,1400 L800,1200 L700,1200 L700,1000 L600,1000 L600,800 L700,800 L700,0 L200,0 L200,200 L100,200 L100,400 L200,400 L200,600 L500,600 L500,800 L200,800 L200,1000 L100,1000 M400,1000 L400,1200 L300,1200 L300,1000 M300,200 L500,200 L500,400 L300,400"/>
            <glyph glyph-name="ã" unicode="&#xE3;" horiz-adv-x="700" d=" M200,1000 L600,1000 L600,800 L700,800 L700,0 L200,0 L200,200 L100,200 L100,400 L200,400 L200,600 L500,600 L500,800 L200,800 M500,1400 L600,1400 L600,1200 L500,1200 M300,1200 L200,1200 L200,1400 L300,1400 M300,200 L500,200 L500,400 L300,400"/>
            <glyph glyph-name="ä" unicode="&#xE4;" horiz-adv-x="700" d=" M700,800 L700,0 L200,0 L200,200 L100,200 L100,400 L200,400 L200,600 L500,600 L500,800 L200,800 L200,1400 L600,1400 L600,800 M500,1200 L300,1200 L300,1000 L500,1000 M300,200 L500,200 L500,400 L300,400"/>
            <glyph glyph-name="å" unicode="&#xE5;" horiz-adv-x="800" d=" M800,800 L800,400 L500,400 L500,200 L700,200 L700,0 L100,0 L100,200 L0,200 L0,400 L100,400 L100,600 L300,600 L300,800 L100,800 L100,1000 L700,1000 L700,800 M600,600 L600,800 L500,800 L500,600 M200,200 L300,200 L300,400 L200,400"/>
            <glyph glyph-name="æ" unicode="&#xE6;" horiz-adv-x="600" d=" M100,0 L300,0 L300,200 L200,200 L200,400 L100,400 L100,800 L200,800 L200,1000 L600,1000 L600,800 L300,800 L300,400 L600,400 L600,200 L500,200 L500,0 L400,0 L400,-200 L100,-200"/>
            <glyph glyph-name="ç" unicode="&#xE7;" horiz-adv-x="700" d=" M700,400 L300,400 L300,200 L600,200 L600,0 L200,0 L200,200 L100,200 L100,800 L200,800 L200,1000 L300,1000 L300,1200 L200,1200 L200,1400 L400,1400 L400,1200 L500,1200 L500,1000 L600,1000 L600,800 L700,800 M300,600 L500,600 L500,800 L300,800"/>
            <glyph glyph-name="è" unicode="&#xE8;" horiz-adv-x="700" d=" M700,400 L300,400 L300,200 L600,200 L600,0 L200,0 L200,200 L100,200 L100,800 L200,800 L200,1000 L300,1000 L300,1200 L400,1200 L400,1400 L600,1400 L600,1200 L500,1200 L500,1000 L600,1000 L600,800 L700,800 M300,600 L500,600 L500,800 L300,800"/>
            <glyph glyph-name="é" unicode="&#xE9;" horiz-adv-x="700" d=" M100,1200 L200,1200 L200,1400 L600,1400 L600,1200 L700,1200 L700,1000 L600,1000 L600,800 L700,800 L700,400 L300,400 L300,200 L600,200 L600,0 L200,0 L200,200 L100,200 L100,800 L200,800 L200,1000 L100,1000 M500,1200 L300,1200 L300,1000 L500,1000 M300,600 L500,600 L500,800 L300,800"/>
            <glyph glyph-name="ê" unicode="&#xEA;" horiz-adv-x="700" d=" M700,400 L300,400 L300,200 L600,200 L600,0 L200,0 L200,200 L100,200 L100,800 L200,800 L200,1000 L600,1000 L600,800 L700,800 M500,1400 L600,1400 L600,1200 L500,1200 M300,600 L500,600 L500,800 L300,800 M300,1200 L200,1200 L200,1400 L300,1400"/>
            <glyph glyph-name="ë" unicode="&#xEB;" horiz-adv-x="600" d=" M200,0 L200,200 L300,200 L300,600 L200,600 L200,800 L500,800 L500,200 L600,200 L600,0 M200,1400 L400,1400 L400,1200 L500,1200 L500,1000 L300,1000 L300,1200 L200,1200"/>
            <glyph glyph-name="ì" unicode="&#xEC;" horiz-adv-x="600" d=" M200,0 L200,200 L300,200 L300,600 L200,600 L200,800 L500,800 L500,200 L600,200 L600,0 M400,1400 L600,1400 L600,1200 L500,1200 L500,1000 L300,1000 L300,1200 L400,1200"/>
            <glyph glyph-name="í" unicode="&#xED;" horiz-adv-x="700" d=" M100,1200 L200,1200 L200,1400 L600,1400 L600,1200 L700,1200 L700,1000 L500,1000 L500,1200 L300,1200 L300,1000 L100,1000 M200,0 L200,200 L300,200 L300,600 L200,600 L200,800 L500,800 L500,200 L600,200 L600,0"/>
            <glyph glyph-name="î" unicode="&#xEE;" horiz-adv-x="600" d=" M200,1000 L200,1200 L300,1200 L300,1000 M200,0 L200,200 L300,200 L300,600 L200,600 L200,800 L500,800 L500,200 L600,200 L600,0 M500,1200 L600,1200 L600,1000 L500,1000"/>
            <glyph glyph-name="ï" unicode="&#xEF;" horiz-adv-x="700" d=" M700,200 L600,200 L600,0 L200,0 L200,200 L100,200 L100,600 L200,600 L200,800 L400,800 L400,1000 L200,1000 L200,1200 L500,1200 L500,1400 L700,1400 L700,1200 L600,1200 L600,1000 L700,1000 M300,200 L500,200 L500,600 L300,600"/>
            <glyph glyph-name="ð" unicode="&#xF0;" horiz-adv-x="800" d=" M100,1200 L200,1200 L200,1400 L500,1400 L500,1200 L600,1200 L600,1400 L800,1400 L800,1200 L700,1200 L700,1000 L600,1000 L600,800 L700,800 L700,0 L500,0 L500,800 L300,800 L300,0 L100,0 M400,1200 L300,1200 L300,1000 L400,1000"/>
            <glyph glyph-name="ñ" unicode="&#xF1;" horiz-adv-x="700" d=" M700,200 L600,200 L600,0 L200,0 L200,200 L100,200 L100,800 L200,800 L200,1000 L300,1000 L300,1200 L200,1200 L200,1400 L400,1400 L400,1200 L500,1200 L500,1000 L600,1000 L600,800 L700,800 M300,800 L300,200 L500,200 L500,800"/>
            <glyph glyph-name="ò" unicode="&#xF2;" horiz-adv-x="700" d=" M700,200 L600,200 L600,0 L200,0 L200,200 L100,200 L100,800 L200,800 L200,1000 L300,1000 L300,1200 L400,1200 L400,1400 L600,1400 L600,1200 L500,1200 L500,1000 L600,1000 L600,800 L700,800 M300,800 L300,200 L500,200 L500,800"/>
            <glyph glyph-name="ó" unicode="&#xF3;" horiz-adv-x="700" d=" M100,1200 L200,1200 L200,1400 L600,1400 L600,1200 L700,1200 L700,1000 L600,1000 L600,800 L700,800 L700,200 L600,200 L600,0 L200,0 L200,200 L100,200 L100,800 L200,800 L200,1000 L100,1000 M500,1200 L300,1200 L300,1000 L500,1000 M300,800 L300,200 L500,200 L500,800"/>
            <glyph glyph-name="ô" unicode="&#xF4;" horiz-adv-x="800" d=" M100,1200 L200,1200 L200,1400 L500,1400 L500,1200 L600,1200 L600,1400 L800,1400 L800,1200 L700,1200 L700,1000 L600,1000 L600,800 L700,800 L700,200 L600,200 L600,0 L200,0 L200,200 L100,200 L100,800 L200,800 L200,1000 L100,1000 M400,1000 L400,1200 L300,1200 L300,1000 M300,800 L300,200 L500,200 L500,800"/>
            <glyph glyph-name="õ" unicode="&#xF5;" horiz-adv-x="700" d=" M200,1000 L600,1000 L600,800 L700,800 L700,200 L600,200 L600,0 L200,0 L200,200 L100,200 L100,800 L200,800 M200,1200 L200,1400 L300,1400 L300,1200 M500,1400 L600,1400 L600,1200 L500,1200 M300,800 L300,200 L500,200 L500,800"/>
            <glyph glyph-name="ö" unicode="&#xF6;" horiz-adv-x="700" d=" M100,600 L100,800 L700,800 L700,600 M500,200 L300,200 L300,400 L500,400 M500,1200 L500,1000 L300,1000 L300,1200"/>
            <glyph glyph-name="÷" unicode="&#xF7;" horiz-adv-x="700" d=" M200,1000 L600,1000 L600,800 L700,800 L700,200 L600,200 L600,0 L200,0 L200,200 L100,200 L100,800 L200,800 M300,800 L300,600 L400,600 L400,800 M400,400 L400,200 L500,200 L500,400"/>
            <glyph glyph-name="ø" unicode="&#xF8;" horiz-adv-x="700" d=" M100,1000 L300,1000 L300,200 L500,200 L500,1000 L700,1000 L700,0 L200,0 L200,200 L100,200 M200,1400 L400,1400 L400,1200 L500,1200 L500,1000 L300,1000 L300,1200 L200,1200"/>
            <glyph glyph-name="ù" unicode="&#xF9;" horiz-adv-x="700" d=" M100,1000 L300,1000 L300,200 L500,200 L500,1000 L700,1000 L700,0 L200,0 L200,200 L100,200 M400,1400 L600,1400 L600,1200 L500,1200 L500,1000 L300,1000 L300,1200 L400,1200"/>
            <glyph glyph-name="ú" unicode="&#xFA;" horiz-adv-x="700" d=" M200,1000 L200,1200 L300,1200 L300,1400 L600,1400 L600,1200 L700,1200 L700,0 L200,0 L200,200 L100,200 L100,1000 M400,1200 L400,1000 L300,1000 L300,200 L500,200 L500,1200"/>
            <glyph glyph-name="û" unicode="&#xFB;" horiz-adv-x="700" d=" M100,1000 L300,1000 L300,200 L500,200 L500,1000 L700,1000 L700,0 L200,0 L200,200 L100,200 M200,1400 L300,1400 L300,1200 L200,1200 M500,1400 L600,1400 L600,1200 L500,1200"/>
            <glyph glyph-name="ü" unicode="&#xFC;" horiz-adv-x="700" d=" M100,0 L400,0 L400,200 L200,200 L200,400 L100,400 L100,1000 L300,1000 L300,400 L500,400 L500,1000 L700,1000 L700,200 L600,200 L600,0 L500,0 L500,-200 L100,-200 M400,1200 L400,1400 L600,1400 L600,1200 L500,1200 L500,1000 L300,1000 L300,1200"/>
            <glyph glyph-name="ý" unicode="&#xFD;" horiz-adv-x="700" d=" M100,1400 L300,1400 L300,1000 L600,1000 L600,800 L700,800 L700,400 L600,400 L600,200 L300,200 L300,-200 L100,-200 M300,800 L300,400 L500,400 L500,800"/>
            <glyph glyph-name="þ" unicode="&#xFE;" horiz-adv-x="700" d=" M700,200 L600,200 L600,0 L500,0 L500,-200 L100,-200 L100,0 L400,0 L400,200 L200,200 L200,400 L100,400 L100,1000 L300,1000 L300,400 L500,400 L500,1000 L700,1000 M500,1400 L600,1400 L600,1200 L500,1200 M300,1200 L200,1200 L200,1400 L300,1400"/>
            <glyph glyph-name="ÿ" unicode="&#xFF;" horiz-adv-x="600" d=" M200,800 L500,800 L500,200 L600,200 L600,0 L200,0 L200,200 L300,200 L300,600 L200,600"/>
            <glyph glyph-name="ı" unicode="&#x131;" horiz-adv-x="800" d=" M100,1200 L100,1400 L800,1400 L800,1200 L700,1200 L700,200 L600,200 L600,0 L100,0 L100,200 L200,200 L200,1200 M400,1200 L400,200 L500,200 L500,1200"/>
            <glyph glyph-name="Ĳ" unicode="&#x132;" horiz-adv-x="700" d=" M200,1000 L200,1200 L400,1200 L400,1000 M700,800 L700,0 L600,0 L600,-200 L200,-200 L200,800 L400,800 L400,0 L500,0 L500,800 M500,1200 L700,1200 L700,1000 L500,1000"/>
            <glyph glyph-name="ĳ" unicode="&#x133;" horiz-adv-x="700" d=" M100,1400 L300,1400 L300,1000 L400,1000 L400,800 L300,800 L300,200 L700,200 L700,0 L100,0 L100,600 L0,600 L0,800 L100,800"/>
            <glyph glyph-name="Ł" unicode="&#x141;" horiz-adv-x="600" d=" M200,1000 L200,1200 L500,1200 L500,800 L600,800 L600,600 L500,600 L500,200 L600,200 L600,0 L200,0 L200,200 L300,200 L300,400 L200,400 L200,600 L300,600 L300,1000"/>
            <glyph glyph-name="ł" unicode="&#x142;" horiz-adv-x="700" d=" M100,1400 L300,1400 L300,1200 L400,1200 L400,1000 L500,1000 L500,1400 L700,1400 L700,0 L600,0 L600,-200 L300,-200 L300,0 L500,0 L500,400 L400,400 L400,600 L300,600 L300,0 L100,0"/>
            <glyph glyph-name="Ŋ" unicode="&#x14A;" horiz-adv-x="700" d=" M100,0 L100,1000 L600,1000 L600,800 L700,800 L700,0 L600,0 L600,-200 L300,-200 L300,0 L500,0 L500,800 L300,800 L300,0"/>
            <glyph glyph-name="ŋ" unicode="&#x14B;" horiz-adv-x="700" d=" M100,1200 L200,1200 L200,1400 L700,1400 L700,1200 L600,1200 L600,800 L700,800 L700,600 L600,600 L600,200 L700,200 L700,0 L200,0 L200,200 L100,200 M400,1200 L300,1200 L300,200 L400,200"/>
            <glyph glyph-name="Œ" unicode="&#x152;" horiz-adv-x="800" d=" M100,0 L100,200 L0,200 L0,800 L100,800 L100,1000 L700,1000 L700,800 L800,800 L800,400 L500,400 L500,200 L700,200 L700,0 M600,600 L600,800 L500,800 L500,600 M300,800 L200,800 L200,200 L300,200"/>
            <glyph glyph-name="œ" unicode="&#x153;" horiz-adv-x="700" d=" M700,400 L700,200 L600,200 L600,0 L100,0 L100,200 L500,200 L500,400 L200,400 L200,600 L100,600 L100,800 L200,800 L200,1000 L300,1000 L300,1200 L200,1200 L200,1400 L400,1400 L400,1200 L500,1200 L500,1400 L700,1400 L700,1200 L600,1200 L600,1000 L700,1000 L700,800 L300,800 L300,600 L600,600 L600,400"/>
            <glyph glyph-name="Š" unicode="&#x160;" horiz-adv-x="700" d=" M700,400 L700,200 L600,200 L600,0 L100,0 L100,200 L500,200 L500,400 L200,400 L200,600 L100,600 L100,800 L200,800 L200,1000 L300,1000 L300,1200 L200,1200 L200,1400 L400,1400 L400,1200 L500,1200 L500,1400 L700,1400 L700,1200 L600,1200 L600,1000 L700,1000 L700,800 L300,800 L300,600 L600,600 L600,400"/>
            <glyph glyph-name="š" unicode="&#x161;" horiz-adv-x="700" d=" M700,600 L600,600 L600,400 L500,400 L500,0 L300,0 L300,400 L200,400 L200,600 L100,600 L100,1000 L300,1000 L300,600 L500,600 L500,1000 L700,1000 M200,1200 L200,1400 L300,1400 L300,1200 M500,1400 L600,1400 L600,1200 L500,1200"/>
            <glyph glyph-name="Ÿ" unicode="&#x178;" horiz-adv-x="700" d=" M700,200 L700,0 L100,0 L100,200 L200,200 L200,400 L300,400 L300,600 L400,600 L400,800 L100,800 L100,1000 L300,1000 L300,1200 L200,1200 L200,1400 L400,1400 L400,1200 L500,1200 L500,1400 L700,1400 L700,1200 L600,1200 L600,1000 L700,1000 L700,800 L600,800 L600,600 L500,600 L500,400 L400,400 L400,200"/>
            <glyph glyph-name="Ž" unicode="&#x17D;" horiz-adv-x="700" d=" M700,200 L700,0 L100,0 L100,200 L200,200 L200,400 L300,400 L300,600 L400,600 L400,800 L100,800 L100,1000 L300,1000 L300,1200 L200,1200 L200,1400 L400,1400 L400,1200 L500,1200 L500,1400 L700,1400 L700,1200 L600,1200 L600,1000 L700,1000 L700,800 L600,800 L600,600 L500,600 L500,400 L400,400 L400,200"/>
            <glyph glyph-name="ž" unicode="&#x17E;" horiz-adv-x="700" d=" M700,1200 L700,1000 L500,1000 L500,0 L300,0 L300,600 L200,600 L200,800 L300,800 L300,1000 L400,1000 L400,1200"/>
            <glyph glyph-name="ſ" unicode="&#x17F;" horiz-adv-x="700" d=" M100,0 L300,0 L300,600 L200,600 L200,800 L300,800 L300,1000 L400,1000 L400,1200 L700,1200 L700,1000 L500,1000 L500,800 L700,800 L700,600 L500,600 L500,0 L400,0 L400,-200 L100,-200"/>
            <glyph glyph-name="ƒ" unicode="&#x192;" horiz-adv-x="700" d=" M700,0 L600,0 L600,-200 L200,-200 L200,0 L500,0 L500,800 L700,800"/>
            <glyph glyph-name="ȷ" unicode="&#x237;" horiz-adv-x="600" d=" M200,1000 L200,1200 L300,1200 L300,1000 M500,1200 L600,1200 L600,1000 L500,1000 M500,1400 L500,1200 L300,1200 L300,1400"/>
            <glyph glyph-name="ˆ" unicode="&#x2C6;" horiz-adv-x="600" d=" M200,1400 L300,1400 L300,1200 L200,1200 M300,1000 L300,1200 L500,1200 L500,1000 M500,1400 L600,1400 L600,1200 L500,1200"/>
            <glyph glyph-name="ˇ" unicode="&#x2C7;" horiz-adv-x="600" d=" M400,1400 L600,1400 L600,1200 L500,1200 L500,1000 L300,1000 L300,1200 L400,1200"/>
            <glyph glyph-name="ˊ" unicode="&#x2CA;" horiz-adv-x="600" d=" M400,1200 L300,1200 L300,1400 L500,1400 L500,1200 L600,1200 L600,1000 L400,1000"/>
            <glyph glyph-name="ˋ" unicode="&#x2CB;" horiz-adv-x="700" d=" M100,1400 L300,1400 L300,1200 L500,1200 L500,1400 L700,1400 L700,1200 L600,1200 L600,1000 L200,1000 L200,1200 L100,1200"/>
            <glyph glyph-name="˘" unicode="&#x2D8;" horiz-adv-x="500" d=" M500,1200 L300,1200 L300,1400 L500,1400"/>
            <glyph glyph-name="˙" unicode="&#x2D9;" horiz-adv-x="700" d=" M200,1000 L200,1200 L300,1200 L300,1400 L600,1400 L600,1200 L700,1200 L700,1000 L600,1000 L600,800 L300,800 L300,1000 M400,1200 L400,1000 L500,1000 L500,1200"/>
            <glyph glyph-name="˚" unicode="&#x2DA;" horiz-adv-x="600" d=" M200,200 L400,200 L400,0 L600,0 L600,-200 L300,-200 L300,0 L200,0"/>
            <glyph glyph-name="˛" unicode="&#x2DB;" horiz-adv-x="800" d=" M100,1200 L200,1200 L200,1400 L500,1400 L500,1200 L600,1200 L600,1400 L800,1400 L800,1200 L700,1200 L700,1000 L400,1000 L400,1200 L300,1200 L300,1000 L100,1000"/>
            <glyph glyph-name="˜" unicode="&#x2DC;" horiz-adv-x="700" d=" M100,1200 L200,1200 L200,1400 L400,1400 L400,1200 L300,1200 L300,1000 L100,1000 M400,1200 L500,1200 L500,1400 L700,1400 L700,1200 L600,1200 L600,1000 L400,1000"/>
            <glyph glyph-name="˝" unicode="&#x2DD;" horiz-adv-x="800" d=" M100,1200 L200,1200 L200,1400 L700,1400 L700,1200 L800,1200 L800,400 L700,400 L700,200 L800,200 L800,0 L500,0 L500,400 L600,400 L600,1200 L300,1200 L300,400 L400,400 L400,0 L100,0 L100,200 L200,200 L200,400 L100,400"/>
            <glyph glyph-name="Ω" unicode="&#x3A9;" horiz-adv-x="700" d=" M0,-200 L0,200 L100,200 L100,1000 L300,1000 L300,200 L500,200 L500,1000 L700,1000 L700,0 L200,0 L200,-200"/>
            <glyph glyph-name="μ" unicode="&#x3BC;" horiz-adv-x="800" d=" M800,800 L700,800 L700,0 L500,0 L500,600 L400,600 L400,0 L200,0 L200,400 L100,400 L100,600 L200,600 L200,800 L600,800 L600,1000 L800,1000"/>
            <glyph glyph-name="π" unicode="&#x3C0;" horiz-adv-x="700" d=" M700,600 L100,600 L100,800 L700,800"/>
            <glyph glyph-name="‐" unicode="&#x2010;" horiz-adv-x="700" d=" M700,600 L100,600 L100,800 L700,800"/>
            <glyph glyph-name="‑" unicode="&#x2011;" horiz-adv-x="700" d=" M700,600 L100,600 L100,800 L700,800"/>
            <glyph glyph-name="‒" unicode="&#x2012;" horiz-adv-x="700" d=" M200,800 L700,800 L700,600 L200,600"/>
            <glyph glyph-name="–" unicode="&#x2013;" horiz-adv-x="800" d=" M800,800 L800,600 L100,600 L100,800"/>
            <glyph glyph-name="—" unicode="&#x2014;" horiz-adv-x="800" d=" M800,800 L800,400 L0,400 L0,800"/>
            <glyph glyph-name="―" unicode="&#x2015;" horiz-adv-x="700" d=" M700,1400 L700,-200 L500,-200 L500,1400 M200,-200 L200,1400 L400,1400 L400,-200"/>
            <glyph glyph-name="‖" unicode="&#x2016;" horiz-adv-x="800" d=" M0,0 L800,0 L800,-200 L0,-200 M0,200 L0,400 L800,400 L800,200"/>
            <glyph glyph-name="‗" unicode="&#x2017;" horiz-adv-x="600" d=" M400,1400 L600,1400 L600,1200 L500,1200 L500,800 L300,800 L300,1200 L400,1200"/>
            <glyph glyph-name="‘" unicode="&#x2018;" horiz-adv-x="600" d=" M400,1400 L600,1400 L600,1000 L500,1000 L500,800 L300,800 L300,1000 L400,1000"/>
            <glyph glyph-name="’" unicode="&#x2019;" horiz-adv-x="500" d=" M200,0 L300,0 L300,400 L500,400 L500,0 L400,0 L400,-200 L200,-200"/>
            <glyph glyph-name="‚" unicode="&#x201A;" horiz-adv-x="600" d=" M500,1400 L500,1000 L600,1000 L600,800 L400,800 L400,1000 L300,1000 L300,1400"/>
            <glyph glyph-name="‛" unicode="&#x201B;" horiz-adv-x="700" d=" M100,1200 L200,1200 L200,1400 L400,1400 L400,1200 L300,1200 L300,800 L100,800 M400,1200 L500,1200 L500,1400 L700,1400 L700,1200 L600,1200 L600,800 L400,800"/>
            <glyph glyph-name="“" unicode="&#x201C;" horiz-adv-x="700" d=" M200,1000 L200,1400 L400,1400 L400,1000 L300,1000 L300,800 L100,800 L100,1000 M500,1400 L700,1400 L700,1000 L600,1000 L600,800 L400,800 L400,1000 L500,1000"/>
            <glyph glyph-name="”" unicode="&#x201D;" horiz-adv-x="700" d=" M700,400 L700,0 L600,0 L600,-200 L400,-200 L400,0 L500,0 L500,400 M100,0 L200,0 L200,400 L400,400 L400,0 L300,0 L300,-200 L100,-200"/>
            <glyph glyph-name="„" unicode="&#x201E;" horiz-adv-x="700" d=" M100,1400 L300,1400 L300,1000 L400,1000 L400,800 L200,800 L200,1000 L100,1000 M700,800 L500,800 L500,1000 L400,1000 L400,1400 L600,1400 L600,1000 L700,1000"/>
            <glyph glyph-name="‟" unicode="&#x201F;" horiz-adv-x="700" d=" M100,1200 L300,1200 L300,1400 L500,1400 L500,1200 L700,1200 L700,1000 L500,1000 L500,400 L300,400 L300,1000 L100,1000"/>
            <glyph glyph-name="†" unicode="&#x2020;" horiz-adv-x="700" d=" M100,1200 L300,1200 L300,1400 L500,1400 L500,1200 L700,1200 L700,1000 L500,1000 L500,800 L700,800 L700,600 L500,600 L500,400 L300,400 L300,600 L100,600 L100,800 L300,800 L300,1000 L100,1000"/>
            <glyph glyph-name="‡" unicode="&#x2021;" horiz-adv-x="700" d=" M700,200 L600,200 L600,0 L200,0 L200,200 L100,200 L100,1000 L200,1000 L200,1200 L600,1200 L600,1000 L700,1000"/>
            <glyph glyph-name="•" unicode="&#x2022;" horiz-adv-x="700" d=" M100,1200 L300,1200 L300,1000 L500,1000 L500,800 L700,800 L700,400 L500,400 L500,200 L300,200 L300,0 L100,0"/>
            <glyph glyph-name="‣" unicode="&#x2023;" horiz-adv-x="500" d=" M500,0 L300,0 L300,400 L500,400"/>
            <glyph glyph-name="․" unicode="&#x2024;" horiz-adv-x="700" d=" M700,400 L700,0 L500,0 L500,400 M200,0 L200,400 L400,400 L400,0"/>
            <glyph glyph-name="‥" unicode="&#x2025;" horiz-adv-x="800" d=" M0,0 L0,400 L200,400 L200,0 M800,0 L600,0 L600,400 L800,400 M500,0 L300,0 L300,400 L500,400"/>
            <glyph glyph-name="…" unicode="&#x2026;" horiz-adv-x="500" d=" M500,600 L300,600 L300,800 L500,800"/>
            <glyph glyph-name="‧" unicode="&#x2027;" horiz-adv-x="700" d=" M100,1400 L300,1400 L300,1000 L100,1000 M700,400 L700,0 L600,0 L600,400 M200,0 L100,0 L100,400 L200,400 L200,600 L300,600 L300,800 L400,800 L400,1000 L500,1000 L500,1200 L600,1200 L600,1400 L700,1400 L700,1000 L600,1000 L600,800 L500,800 L500,600 L400,600 L400,400 L300,400 L300,200 L200,200 M400,0 L400,400 L500,400 L500,0"/>
            <glyph glyph-name="‰" unicode="&#x2030;" horiz-adv-x="700" d=" M100,1400 L300,1400 L300,1000 L100,1000 M700,400 L700,0 L300,0 L300,200 L200,200 L200,0 L100,0 L100,400 L200,400 L200,600 L300,600 L300,800 L400,800 L400,1000 L500,1000 L500,1200 L600,1200 L600,1400 L700,1400 L700,1000 L600,1000 L600,800 L500,800 L500,600 L400,600 L400,400"/>
            <glyph glyph-name="‱" unicode="&#x2031;" horiz-adv-x="600" d=" M400,1200 L600,1200 L600,1000 L500,1000 L500,800 L400,800 L400,600 L500,600 L500,400 L600,400 L600,200 L400,200 L400,400 L300,400 L300,600 L200,600 L200,800 L300,800 L300,1000 L400,1000"/>
            <glyph glyph-name="‹" unicode="&#x2039;" horiz-adv-x="700" d=" M700,600 L600,600 L600,400 L500,400 L500,200 L300,200 L300,400 L400,400 L400,600 L500,600 L500,800 L400,800 L400,1000 L300,1000 L300,1200 L500,1200 L500,1000 L600,1000 L600,800 L700,800"/>
            <glyph glyph-name="›" unicode="&#x203A;" horiz-adv-x="700" d=" M100,1400 L300,1400 L300,600 L100,600 M100,0 L100,200 L300,200 L300,0 M700,200 L700,0 L500,0 L500,200 M700,600 L500,600 L500,1400 L700,1400"/>
            <glyph glyph-name="‼" unicode="&#x203C;" horiz-adv-x="700" d=" M100,1200 L200,1200 L200,1400 L600,1400 L600,1200 L700,1200 L700,800 L600,800 L600,600 L500,600 L500,400 L300,400 L300,1000 L100,1000 M500,0 L300,0 L300,200 L500,200"/>
            <glyph glyph-name="‽" unicode="&#x203D;" horiz-adv-x="800" d=" M100,0 L100,200 L200,200 L200,400 L300,400 L300,600 L400,600 L400,800 L500,800 L500,1000 L600,1000 L600,1200 L800,1200 L800,1000 L700,1000 L700,800 L600,800 L600,600 L500,600 L500,400 L400,400 L400,200 L300,200 L300,0"/>
            <glyph glyph-name="⁄" unicode="&#x2044;" horiz-adv-x="800" d=" M700,200 L700,0 L300,0 L300,200 L200,200 L200,400 L100,400 L100,600 L200,600 L200,800 L100,800 L100,1000 L200,1000 L200,1200 L300,1200 L300,1400 L700,1400 L700,1200 L800,1200 L800,1000 L600,1000 L600,1200 L400,1200 L400,1000 L500,1000 L500,800 L400,800 L400,600 L500,600 L500,400 L400,400 L400,200 L600,200 L600,400 L800,400 L800,200"/>
            <glyph glyph-name="€" unicode="&#x20AC;" horiz-adv-x="800" d=" M700,400 L700,200 L600,200 L600,400 M200,1000 L200,400 L100,400 L100,1000 M800,400 L700,400 L700,1000 L800,1000 M600,600 L400,600 L400,400 L300,400 L300,1000 L600,1000 M700,1000 L600,1000 L600,1200 L700,1200 M200,200 L200,400 L300,400 L300,200 M600,1400 L600,1200 L300,1200 L300,1400 M300,1200 L300,1000 L200,1000 L200,1200 M600,200 L600,0 L300,0 L300,200"/>
            <glyph glyph-name="℗" unicode="&#x2117;" horiz-adv-x="800" d=" M100,1200 L0,1200 L0,1400 L500,1400 L500,1200 L600,1200 L600,1400 L800,1400 L800,800 L600,800 L600,1000 L500,1000 L500,800 L300,800 L300,1000 L200,1000 L200,800 L0,800 L0,1000 L100,1000"/>
            <glyph glyph-name="℠" unicode="&#x2120;" horiz-adv-x="800" d=" M0,1400 L500,1400 L500,1200 L600,1200 L600,1400 L800,1400 L800,800 L600,800 L600,1000 L500,1000 L500,800 L300,800 L300,1200 L200,1200 L200,800 L0,800"/>
            <glyph glyph-name="™" unicode="&#x2122;" horiz-adv-x="800" d=" M100,1200 L200,1200 L200,1400 L700,1400 L700,1200 L800,1200 L800,400 L700,400 L700,200 L800,200 L800,0 L500,0 L500,400 L600,400 L600,1200 L300,1200 L300,400 L400,400 L400,0 L100,0 L100,200 L200,200 L200,400 L100,400"/>
            <glyph glyph-name="Ω" unicode="&#x2126;" horiz-adv-x="800" d=" M100,1200 L100,1400 L400,1400 L400,1000 L300,1000 L300,200 L600,200 L600,1000 L500,1000 L500,1400 L800,1400 L800,1200 L700,1200 L700,1000 L800,1000 L800,200 L700,200 L700,0 L200,0 L200,200 L100,200 L100,1000 L200,1000 L200,1200"/>
            <glyph glyph-name="℧" unicode="&#x2127;" horiz-adv-x="800" d=" M800,800 L800,400 L400,400 L400,0 L300,0 L300,200 L200,200 L200,400 L100,400 L100,800 L200,800 L200,1000 L300,1000 L300,1200 L400,1200 L400,800"/>
            <glyph glyph-name="←" unicode="&#x2190;" horiz-adv-x="700" d=" M200,1000 L300,1000 L300,1200 L500,1200 L500,1000 L600,1000 L600,800 L700,800 L700,600 L500,600 L500,-200 L300,-200 L300,600 L100,600 L100,800 L200,800"/>
            <glyph glyph-name="↑" unicode="&#x2191;" horiz-adv-x="700" d=" M700,400 L600,400 L600,200 L500,200 L500,0 L400,0 L400,400 L0,400 L0,800 L400,800 L400,1200 L500,1200 L500,1000 L600,1000 L600,800 L700,800"/>
            <glyph glyph-name="→" unicode="&#x2192;" horiz-adv-x="700" d=" M700,400 L600,400 L600,200 L500,200 L500,0 L300,0 L300,200 L200,200 L200,400 L100,400 L100,600 L300,600 L300,1400 L500,1400 L500,600 L700,600"/>
            <glyph glyph-name="↓" unicode="&#x2193;" horiz-adv-x="800" d=" M700,400 L700,200 L600,200 L600,0 L500,0 L500,400 L400,400 L400,0 L300,0 L300,200 L200,200 L200,400 L100,400 L100,800 L200,800 L200,1000 L300,1000 L300,1200 L400,1200 L400,800 L500,800 L500,1200 L600,1200 L600,1000 L700,1000 L700,800 L800,800 L800,400"/>
            <glyph glyph-name="↔" unicode="&#x2194;" horiz-adv-x="700" d=" M700,400 L700,200 L600,200 L600,0 L500,0 L500,-200 L300,-200 L300,0 L200,0 L200,200 L100,200 L100,400 L300,400 L300,600 L100,600 L100,800 L200,800 L200,1000 L300,1000 L300,1200 L500,1200 L500,1000 L600,1000 L600,800 L700,800 L700,600 L500,600 L500,400"/>
            <glyph glyph-name="↕" unicode="&#x2195;" horiz-adv-x="800" d=" M100,1200 L600,1200 L600,800 L500,800 L500,600 L600,600 L600,400 L700,400 L700,200 L800,200 L800,-200 L600,-200 L600,0 L500,0 L500,200 L400,200 L400,400 L300,400 L300,200 L100,200"/>
            <glyph glyph-name="↖" unicode="&#x2196;" horiz-adv-x="700" d=" M700,200 L500,200 L500,400 L400,400 L400,200 L300,200 L300,0 L200,0 L200,-200 L0,-200 L0,200 L100,200 L100,400 L200,400 L200,600 L300,600 L300,800 L200,800 L200,1200 L700,1200"/>
            <glyph glyph-name="↗" unicode="&#x2197;" horiz-adv-x="700" d=" M0,1400 L200,1400 L200,1200 L300,1200 L300,1000 L400,1000 L400,800 L500,800 L500,1000 L700,1000 L700,0 L200,0 L200,400 L300,400 L300,600 L200,600 L200,800 L100,800 L100,1000 L0,1000"/>
            <glyph glyph-name="↘" unicode="&#x2198;" horiz-adv-x="800" d=" M100,0 L100,1000 L300,1000 L300,800 L400,800 L400,1000 L500,1000 L500,1200 L600,1200 L600,1400 L800,1400 L800,1000 L700,1000 L700,800 L600,800 L600,600 L500,600 L500,400 L600,400 L600,0"/>
            <glyph glyph-name="↙" unicode="&#x2199;" horiz-adv-x="800" d=" M700,400 L700,200 L600,200 L600,0 L500,0 L500,400 L400,400 L400,0 L300,0 L300,200 L200,200 L200,400 L100,400 L100,800 L200,800 L200,1000 L300,1000 L300,1200 L400,1200 L400,800 L500,800 L500,1000 L600,1000 L600,1200 L700,1200 L700,800 L800,800 L800,400"/>
            <glyph glyph-name="↚" unicode="&#x219A;" horiz-adv-x="700" d=" M700,400 L600,400 L600,200 L500,200 L500,0 L400,0 L400,400 L300,400 L300,200 L200,200 L200,0 L100,0 L100,400 L0,400 L0,800 L100,800 L100,1000 L200,1000 L200,1200 L300,1200 L300,800 L400,800 L400,1200 L500,1200 L500,1000 L600,1000 L600,800 L700,800"/>
            <glyph glyph-name="↛" unicode="&#x219B;" horiz-adv-x="800" d=" M700,400 L700,600 L600,600 L600,400 L500,400 L500,200 L400,200 L400,0 L300,0 L300,200 L200,200 L200,400 L100,400 L100,800 L200,800 L200,1000 L300,1000 L300,1200 L400,1200 L400,600 L500,600 L500,800 L600,800 L600,1000 L700,1000 L700,800 L800,800 L800,400"/>
            <glyph glyph-name="↜" unicode="&#x219C;" horiz-adv-x="700" d=" M700,400 L600,400 L600,200 L500,200 L500,0 L400,0 L400,200 L300,200 L300,400 L200,400 L200,600 L100,600 L100,400 L0,400 L0,800 L100,800 L100,1000 L200,1000 L200,800 L300,800 L300,600 L400,600 L400,1200 L500,1200 L500,1000 L600,1000 L600,800 L700,800"/>
            <glyph glyph-name="↝" unicode="&#x219D;" horiz-adv-x="800" d=" M700,400 L700,0 L600,0 L600,200 L500,200 L500,400 L400,400 L400,0 L300,0 L300,200 L200,200 L200,400 L100,400 L100,800 L200,800 L200,1000 L300,1000 L300,1200 L400,1200 L400,800 L500,800 L500,1000 L600,1000 L600,1200 L700,1200 L700,800 L800,800 L800,400"/>
            <glyph glyph-name="↞" unicode="&#x219E;" horiz-adv-x="700" d=" M700,200 L700,0 L500,0 L500,-200 L300,-200 L300,0 L100,0 L100,200 L200,200 L200,400 L300,400 L300,600 L100,600 L100,800 L200,800 L200,1000 L300,1000 L300,1200 L500,1200 L500,1000 L600,1000 L600,800 L700,800 L700,600 L500,600 L500,400 L600,400 L600,200"/>
            <glyph glyph-name="↟" unicode="&#x219F;" horiz-adv-x="700" d=" M100,1200 L200,1200 L200,1000 L300,1000 L300,800 L400,800 L400,1200 L500,1200 L500,1000 L600,1000 L600,800 L700,800 L700,400 L600,400 L600,200 L500,200 L500,0 L400,0 L400,400 L300,400 L300,200 L200,200 L200,0 L100,0 L100,400 L0,400 L0,800 L100,800"/>
            <glyph glyph-name="↠" unicode="&#x21A0;" horiz-adv-x="700" d=" M100,1200 L300,1200 L300,1400 L500,1400 L500,1200 L700,1200 L700,1000 L600,1000 L600,800 L500,800 L500,600 L700,600 L700,400 L600,400 L600,200 L500,200 L500,0 L300,0 L300,200 L200,200 L200,400 L100,400 L100,600 L300,600 L300,800 L200,800 L200,1000 L100,1000"/>
            <glyph glyph-name="↡" unicode="&#x21A1;" horiz-adv-x="800" d=" M700,400 L800,400 L800,0 L700,0 L700,200 L600,200 L600,400 L400,400 L400,0 L300,0 L300,200 L200,200 L200,400 L100,400 L100,800 L200,800 L200,1000 L300,1000 L300,1200 L400,1200 L400,800 L600,800 L600,1000 L700,1000 L700,1200 L800,1200 L800,800 L700,800"/>
            <glyph glyph-name="↢" unicode="&#x21A2;" horiz-adv-x="700" d=" M0,0 L0,400 L100,400 L100,800 L0,800 L0,1200 L100,1200 L100,1000 L200,1000 L200,800 L400,800 L400,1200 L500,1200 L500,1000 L600,1000 L600,800 L700,800 L700,400 L600,400 L600,200 L500,200 L500,0 L400,0 L400,400 L200,400 L200,200 L100,200 L100,0"/>
            <glyph glyph-name="↣" unicode="&#x21A3;" horiz-adv-x="800" d=" M200,1000 L300,1000 L300,1200 L400,1200 L400,800 L600,800 L600,1200 L800,1200 L800,0 L600,0 L600,400 L400,400 L400,0 L300,0 L300,200 L200,200 L200,400 L100,400 L100,800 L200,800"/>
            <glyph glyph-name="↤" unicode="&#x21A4;" horiz-adv-x="700" d=" M700,-200 L100,-200 L100,200 L300,200 L300,600 L100,600 L100,800 L200,800 L200,1000 L300,1000 L300,1200 L500,1200 L500,1000 L600,1000 L600,800 L700,800 L700,600 L500,600 L500,200 L700,200"/>
            <glyph glyph-name="↥" unicode="&#x21A5;" horiz-adv-x="700" d=" M0,0 L0,1200 L200,1200 L200,800 L400,800 L400,1200 L500,1200 L500,1000 L600,1000 L600,800 L700,800 L700,400 L600,400 L600,200 L500,200 L500,0 L400,0 L400,400 L200,400 L200,0"/>
            <glyph glyph-name="↦" unicode="&#x21A6;" horiz-adv-x="700" d=" M100,1400 L700,1400 L700,1000 L500,1000 L500,600 L700,600 L700,400 L600,400 L600,200 L500,200 L500,0 L300,0 L300,200 L200,200 L200,400 L100,400 L100,600 L300,600 L300,1000 L100,1000"/>
            <glyph glyph-name="↧" unicode="&#x21A7;" horiz-adv-x="700" d=" M700,400 L600,400 L600,200 L700,200 L700,-200 L100,-200 L100,200 L200,200 L200,400 L100,400 L100,600 L300,600 L300,800 L100,800 L100,1000 L200,1000 L200,1200 L300,1200 L300,1400 L500,1400 L500,1200 L600,1200 L600,1000 L700,1000 L700,800 L500,800 L500,600 L700,600"/>
            <glyph glyph-name="↨" unicode="&#x21A8;" horiz-adv-x="800" d=" M700,400 L400,400 L400,0 L300,0 L300,200 L200,200 L200,400 L100,400 L100,800 L200,800 L200,1000 L300,1000 L300,1200 L400,1200 L400,800 L600,800 L600,1200 L800,1200 L800,600 L700,600"/>
            <glyph glyph-name="↩" unicode="&#x21A9;" horiz-adv-x="700" d=" M700,400 L600,400 L600,200 L500,200 L500,0 L400,0 L400,400 L100,400 L100,600 L0,600 L0,1200 L200,1200 L200,800 L400,800 L400,1200 L500,1200 L500,1000 L600,1000 L600,800 L700,800"/>
            <glyph glyph-name="↪" unicode="&#x21AA;" horiz-adv-x="800" d=" M700,400 L700,0 L500,0 L500,400 L400,400 L400,0 L300,0 L300,200 L200,200 L200,400 L100,400 L100,800 L200,800 L200,1000 L300,1000 L300,1200 L400,1200 L400,800 L500,800 L500,1000 L700,1000 L700,800 L800,800 L800,400"/>
            <glyph glyph-name="↫" unicode="&#x21AB;" horiz-adv-x="700" d=" M700,400 L600,400 L600,200 L500,200 L500,0 L400,0 L400,400 L300,400 L300,0 L100,0 L100,400 L0,400 L0,800 L100,800 L100,1000 L300,1000 L300,800 L400,800 L400,1200 L500,1200 L500,1000 L600,1000 L600,800 L700,800"/>
            <glyph glyph-name="↬" unicode="&#x21AC;" horiz-adv-x="800" d=" M200,1000 L200,1200 L300,1200 L300,1400 L400,1400 L400,1000 L800,1000 L800,-200 L600,-200 L600,600 L400,600 L400,200 L300,200 L300,400 L200,400 L200,600 L100,600 L100,1000"/>
            <glyph glyph-name="↰" unicode="&#x21B0;" horiz-adv-x="700" d=" M700,600 L600,600 L600,400 L500,400 L500,200 L400,200 L400,600 L200,600 L200,-200 L0,-200 L0,1000 L400,1000 L400,1400 L500,1400 L500,1200 L600,1200 L600,1000 L700,1000"/>
            <glyph glyph-name="↱" unicode="&#x21B1;" horiz-adv-x="800" d=" M800,200 L400,200 L400,-200 L300,-200 L300,0 L200,0 L200,200 L100,200 L100,600 L200,600 L200,800 L300,800 L300,1000 L400,1000 L400,600 L600,600 L600,1400 L800,1400"/>
            <glyph glyph-name="↲" unicode="&#x21B2;" horiz-adv-x="700" d=" M0,1400 L200,1400 L200,600 L400,600 L400,1000 L500,1000 L500,800 L600,800 L600,600 L700,600 L700,200 L600,200 L600,0 L500,0 L500,-200 L400,-200 L400,200 L0,200"/>
            <glyph glyph-name="↳" unicode="&#x21B3;" horiz-adv-x="800" d=" M700,400 L700,200 L600,200 L600,0 L400,0 L400,200 L300,200 L300,400 L200,400 L200,600 L400,600 L400,1000 L0,1000 L0,1400 L600,1400 L600,600 L800,600 L800,400"/>
            <glyph glyph-name="↴" unicode="&#x21B4;" horiz-adv-x="800" d=" M200,1000 L300,1000 L300,1200 L400,1200 L400,800 L600,800 L600,1200 L800,1200 L800,400 L400,400 L400,0 L300,0 L300,200 L200,200 L200,400 L100,400 L100,800 L200,800"/>
            <glyph glyph-name="↵" unicode="&#x21B5;" horiz-adv-x="800" d=" M800,800 L800,600 L200,600 L200,800 L300,800 L300,1000 L400,1000 L400,800 M800,200 L400,200 L400,0 L300,0 L300,200 L200,200 L200,400 L800,400 M100,400 L100,600 L200,600 L200,400"/>
            <glyph glyph-name="⇐" unicode="&#x21D0;" horiz-adv-x="700" d=" M700,600 L600,600 L600,-200 L500,-200 L500,1000 L600,1000 L600,800 L700,800 M400,1200 L500,1200 L500,1000 L400,1000 M300,800 L300,1000 L400,1000 L400,-200 L300,-200 L300,600 L200,600 L200,800"/>
            <glyph glyph-name="⇑" unicode="&#x21D1;" horiz-adv-x="700" d=" M700,400 L600,400 L600,600 L700,600 M600,600 L0,600 L0,800 L400,800 L400,1000 L500,1000 L500,800 L600,800 M500,0 L400,0 L400,200 L0,200 L0,400 L600,400 L600,200 L500,200"/>
            <glyph glyph-name="⇒" unicode="&#x21D2;" horiz-adv-x="700" d=" M700,400 L600,400 L600,200 L500,200 L500,1400 L600,1400 L600,600 L700,600 M400,1400 L400,200 L300,200 L300,400 L200,400 L200,600 L300,600 L300,1400 M500,0 L400,0 L400,200 L500,200"/>
            <glyph glyph-name="⇓" unicode="&#x21D3;" horiz-adv-x="800" d=" M700,400 L700,600 L800,600 L800,400 M700,200 L600,200 L600,0 L500,0 L500,200 L400,200 L400,0 L300,0 L300,200 L200,200 L200,400 L700,400 M700,800 L700,600 L200,600 L200,800 L300,800 L300,1000 L400,1000 L400,800 L500,800 L500,1000 L600,1000 L600,800 M100,600 L200,600 L200,400 L100,400"/>
            <glyph glyph-name="⇔" unicode="&#x21D4;" horiz-adv-x="700" d=" M700,400 L700,200 L600,200 L600,0 L500,0 L500,1000 L600,1000 L600,800 L700,800 L700,600 L600,600 L600,400 M400,0 L500,0 L500,-200 L400,-200 M500,1200 L500,1000 L400,1000 L400,1200 M400,1000 L400,0 L300,0 L300,200 L200,200 L200,400 L300,400 L300,600 L200,600 L200,800 L300,800 L300,1000"/>
            <glyph glyph-name="⇕" unicode="&#x21D5;" horiz-adv-x="800" d=" M100,1200 L500,1200 L500,1000 L400,1000 L400,800 L300,800 L300,1000 L200,1000 L200,800 L300,800 L300,600 L200,600 L200,400 L100,400 M700,400 L700,200 L600,200 L600,400 M700,-200 L600,-200 L600,0 L700,0 M700,200 L800,200 L800,0 L700,0 M600,600 L600,400 L500,400 L500,600 M300,600 L400,600 L400,400 L300,400 M500,600 L400,600 L400,800 L500,800 M400,400 L500,400 L500,200 L400,200 M500,0 L500,200 L600,200 L600,0"/>
            <glyph glyph-name="⇖" unicode="&#x21D6;" horiz-adv-x="700" d=" M0,0 L0,200 L100,200 L100,0 M700,400 L600,400 L600,600 L500,600 L500,800 L600,800 L600,1000 L500,1000 L500,800 L400,800 L400,1000 L300,1000 L300,1200 L700,1200 M200,0 L200,200 L300,200 L300,0 M300,600 L300,800 L400,800 L400,600 M200,200 L100,200 L100,400 L200,400 M200,-200 L100,-200 L100,0 L200,0 M200,400 L200,600 L300,600 L300,400 M500,600 L500,400 L400,400 L400,600 M400,400 L400,200 L300,200 L300,400"/>
            <glyph glyph-name="⇗" unicode="&#x21D7;" horiz-adv-x="700" d=" M100,1400 L200,1400 L200,1200 L100,1200 M100,1200 L100,1000 L0,1000 L0,1200 M200,1000 L200,800 L100,800 L100,1000 M700,800 L700,0 L300,0 L300,200 L400,200 L400,400 L500,400 L500,200 L600,200 L600,400 L500,400 L500,600 L600,600 L600,800 M400,1000 L400,800 L300,800 L300,1000 M300,600 L200,600 L200,800 L300,800 M400,400 L300,400 L300,600 L400,600 M500,600 L400,600 L400,800 L500,800 M300,1200 L300,1000 L200,1000 L200,1200"/>
            <glyph glyph-name="⇘" unicode="&#x21D8;" horiz-adv-x="800" d=" M700,800 L600,800 L600,1000 L700,1000 M600,600 L500,600 L500,800 L600,800 M500,1200 L600,1200 L600,1000 L500,1000 M400,1000 L500,1000 L500,800 L400,800 M300,600 L300,800 L400,800 L400,600 M800,1000 L700,1000 L700,1200 L800,1200 M200,800 L200,600 L300,600 L300,400 L200,400 L200,200 L300,200 L300,400 L400,400 L400,200 L500,200 L500,0 L100,0 L100,800 M400,400 L400,600 L500,600 L500,400 M600,1400 L700,1400 L700,1200 L600,1200"/>
            <glyph glyph-name="⇙" unicode="&#x21D9;" horiz-adv-x="700" d=" M700,400 L500,400 L500,200 L700,200 L700,0 L500,0 L500,-200 L300,-200 L300,0 L100,0 L100,200 L300,200 L300,400 L100,400 L100,600 L300,600 L300,800 L100,800 L100,1000 L200,1000 L200,1200 L300,1200 L300,1400 L500,1400 L500,1200 L600,1200 L600,1000 L700,1000 L700,800 L500,800 L500,600 L700,600"/>
            <glyph glyph-name="⇞" unicode="&#x21DE;" horiz-adv-x="700" d=" M100,1200 L300,1200 L300,1400 L500,1400 L500,1200 L700,1200 L700,1000 L500,1000 L500,800 L700,800 L700,600 L500,600 L500,400 L700,400 L700,200 L600,200 L600,0 L500,0 L500,-200 L300,-200 L300,0 L200,0 L200,200 L100,200 L100,400 L300,400 L300,600 L100,600 L100,800 L300,800 L300,1000 L100,1000"/>
            <glyph glyph-name="⇟" unicode="&#x21DF;" horiz-adv-x="800" d=" M700,400 L700,800 L800,800 L800,400 M200,1000 L300,1000 L300,1200 L400,1200 L400,0 L300,0 L300,200 L200,200 L200,400 L100,400 L100,800 L200,800 M600,400 L500,400 L500,800 L600,800"/>
            <glyph glyph-name="⇠" unicode="&#x21E0;" horiz-adv-x="700" d=" M200,1000 L300,1000 L300,1200 L500,1200 L500,1000 L600,1000 L600,800 L700,800 L700,600 L100,600 L100,800 L200,800 M500,0 L500,-200 L300,-200 L300,0 M300,200 L300,400 L500,400 L500,200"/>
            <glyph glyph-name="⇡" unicode="&#x21E1;" horiz-adv-x="700" d=" M700,400 L600,400 L600,200 L500,200 L500,0 L400,0 L400,1200 L500,1200 L500,1000 L600,1000 L600,800 L700,800 M300,800 L300,400 L200,400 L200,800 M100,400 L0,400 L0,800 L100,800"/>
            <glyph glyph-name="⇢" unicode="&#x21E2;" horiz-adv-x="700" d=" M700,400 L600,400 L600,200 L500,200 L500,0 L300,0 L300,200 L200,200 L200,400 L100,400 L100,600 L700,600 M500,1200 L300,1200 L300,1400 L500,1400 M300,800 L300,1000 L500,1000 L500,800"/>
            <glyph glyph-name="⇣" unicode="&#x21E3;" horiz-adv-x="800" d=" M100,1200 L300,1200 L300,800 L400,800 L400,1000 L500,1000 L500,1200 L600,1200 L600,800 L800,800 L800,400 L600,400 L600,0 L500,0 L500,200 L400,200 L400,400 L300,400 L300,0 L100,0"/>
            <glyph glyph-name="⇤" unicode="&#x21E4;" horiz-adv-x="700" d=" M200,0 L200,400 L0,400 L0,800 L200,800 L200,1200 L300,1200 L300,1000 L400,1000 L400,800 L500,800 L500,1200 L700,1200 L700,0 L500,0 L500,400 L400,400 L400,200 L300,200 L300,0"/>
            <glyph glyph-name="⇥" unicode="&#x21E5;" horiz-adv-x="800" d=" M200,1000 L300,1000 L300,800 L200,800 M700,800 L400,800 L400,1000 L300,1000 L300,1200 L400,1200 L400,1400 L500,1400 L500,1000 L800,1000 L800,400 L500,400 L500,0 L400,0 L400,200 L300,200 L300,400 L400,400 L400,600 L700,600 M300,600 L300,400 L200,400 L200,600 M200,800 L200,600 L100,600 L100,800"/>
            <glyph glyph-name="⇦" unicode="&#x21E6;" horiz-adv-x="800" d=" M800,800 L800,600 L600,600 L600,0 L300,0 L300,600 L100,600 L100,800 L200,800 L200,1000 L300,1000 L300,800 L400,800 L400,200 L500,200 L500,800 L600,800 L600,1000 L700,1000 L700,800 M500,1200 L400,1200 L400,1400 L500,1400 M400,1000 L300,1000 L300,1200 L400,1200 M600,1200 L600,1000 L500,1000 L500,1200"/>
            <glyph glyph-name="⇧" unicode="&#x21E7;" horiz-adv-x="800" d=" M700,400 L600,400 L600,600 L700,600 M800,800 L800,600 L700,600 L700,800 M700,800 L600,800 L600,1000 L700,1000 M400,0 L400,400 L100,400 L100,1000 L400,1000 L400,1400 L500,1400 L500,1200 L600,1200 L600,1000 L500,1000 L500,800 L200,800 L200,600 L500,600 L500,400 L600,400 L600,200 L500,200 L500,0"/>
            <glyph glyph-name="⇨" unicode="&#x21E8;" horiz-adv-x="800" d=" M700,400 L600,400 L600,600 L500,600 L500,1200 L400,1200 L400,600 L300,600 L300,400 L200,400 L200,600 L100,600 L100,800 L300,800 L300,1400 L600,1400 L600,800 L800,800 L800,600 L700,600 M400,0 L400,200 L500,200 L500,0 M400,400 L400,200 L300,200 L300,400 M600,200 L500,200 L500,400 L600,400"/>
            <glyph glyph-name="⇩" unicode="&#x21E9;" horiz-adv-x="800" d=" M800,800 L800,600 L600,600 L600,0 L300,0 L300,600 L100,600 L100,800 L200,800 L200,1000 L300,1000 L300,800 L400,800 L400,600 L500,600 L500,800 L600,800 L600,1000 L700,1000 L700,800 M500,1200 L400,1200 L400,1400 L500,1400 M400,1000 L300,1000 L300,1200 L400,1200 M400,400 L400,200 L500,200 L500,400 M600,1200 L600,1000 L500,1000 L500,1200"/>
            <glyph glyph-name="⇪" unicode="&#x21EA;" horiz-adv-x="700" d=" M200,1000 L500,1000 L500,1200 L300,1200 L300,1400 L600,1400 L600,1200 L700,1200 L700,200 L600,200 L600,0 L200,0 L200,200 L100,200 L100,800 L200,800 M300,800 L300,200 L500,200 L500,800"/>
            <glyph glyph-name="∂" unicode="&#x2202;" horiz-adv-x="800" d=" M700,400 L800,400 L800,0 L100,0 L100,400 L200,400 L200,800 L300,800 L300,1200 L400,1200 L400,1400 L500,1400 L500,1200 L600,1200 L600,800 L700,800 M600,200 L600,400 L500,400 L500,800 L400,800 L400,400 L300,400 L300,200"/>
            <glyph glyph-name="∆" unicode="&#x2206;" horiz-adv-x="800" d=" M100,1400 L800,1400 L800,1000 L700,1000 L700,600 L600,600 L600,200 L500,200 L500,0 L400,0 L400,200 L300,200 L300,600 L200,600 L200,1000 L100,1000 M400,1000 L400,600 L500,600 L500,1000 L600,1000 L600,1200 L300,1200 L300,1000"/>
            <glyph glyph-name="∇" unicode="&#x2207;" horiz-adv-x="800" d=" M100,1200 L100,1400 L800,1400 L800,1200 L700,1200 L700,0 L500,0 L500,1200 L400,1200 L400,0 L200,0 L200,1200"/>
            <glyph glyph-name="∏" unicode="&#x220F;" horiz-adv-x="800" d=" M700,1400 L700,200 L800,200 L800,0 L100,0 L100,200 L200,200 L200,1400 L400,1400 L400,200 L500,200 L500,1400"/>
            <glyph glyph-name="∐" unicode="&#x2210;" horiz-adv-x="800" d=" M100,1400 L800,1400 L800,1000 L600,1000 L600,1200 L400,1200 L400,1000 L500,1000 L500,800 L600,800 L600,600 L500,600 L500,400 L400,400 L400,200 L600,200 L600,400 L800,400 L800,0 L100,0 L100,200 L200,200 L200,400 L300,400 L300,600 L400,600 L400,800 L300,800 L300,1000 L200,1000 L200,1200 L100,1200"/>
            <glyph glyph-name="∑" unicode="&#x2211;" horiz-adv-x="700" d=" M700,600 L100,600 L100,800 L700,800"/>
            <glyph glyph-name="−" unicode="&#x2212;" horiz-adv-x="800" d=" M200,0 L200,200 L100,200 L100,400 L0,400 L0,600 L200,600 L200,400 L300,400 L300,1400 L800,1400 L800,1200 L500,1200 L500,0"/>
            <glyph glyph-name="√" unicode="&#x221A;" horiz-adv-x="800" d=" M700,400 L700,200 L400,200 L400,400 L300,400 L300,800 L200,800 L200,400 L300,400 L300,200 L100,200 L100,400 L0,400 L0,800 L100,800 L100,1000 L400,1000 L400,800 L500,800 L500,400 L600,400 L600,800 L500,800 L500,1000 L700,1000 L700,800 L800,800 L800,400"/>
            <glyph glyph-name="∞" unicode="&#x221E;" horiz-adv-x="700" d=" M700,1200 L700,1000 L500,1000 L500,0 L400,0 L400,-200 L100,-200 L100,0 L300,0 L300,1000 L400,1000 L400,1200"/>
            <glyph glyph-name="∫" unicode="&#x222B;" horiz-adv-x="800" d=" M700,400 L700,200 L400,200 L400,400 L300,400 L300,200 L100,200 L100,400 L200,400 L200,600 L500,600 L500,400 L600,400 L600,600 L800,600 L800,400 M200,1000 L200,1200 L500,1200 L500,1000 L600,1000 L600,1200 L800,1200 L800,1000 L700,1000 L700,800 L400,800 L400,1000 L300,1000 L300,800 L100,800 L100,1000"/>
            <glyph glyph-name="≈" unicode="&#x2248;" horiz-adv-x="700" d=" M700,400 L400,400 L400,200 L200,200 L200,400 L100,400 L100,600 L300,600 L300,800 L100,800 L100,1000 L400,1000 L400,1200 L600,1200 L600,1000 L700,1000 L700,800 L500,800 L500,600 L700,600"/>
            <glyph glyph-name="≠" unicode="&#x2260;" horiz-adv-x="800" d=" M100,0 L100,200 L400,200 L400,400 L300,400 L300,600 L200,600 L200,800 L300,800 L300,1000 L400,1000 L400,1200 L600,1200 L600,1000 L500,1000 L500,800 L400,800 L400,600 L500,600 L500,400 L600,400 L600,200 L800,200 L800,0"/>
            <glyph glyph-name="≤" unicode="&#x2264;" horiz-adv-x="800" d=" M100,0 L100,200 L300,200 L300,400 L400,400 L400,600 L500,600 L500,800 L400,800 L400,1000 L300,1000 L300,1200 L500,1200 L500,1000 L600,1000 L600,800 L700,800 L700,600 L600,600 L600,400 L500,400 L500,200 L800,200 L800,0"/>
            <glyph glyph-name="≥" unicode="&#x2265;" horiz-adv-x="800" d=" M200,1000 L300,1000 L300,1200 L400,1200 L400,1400 L500,1400 L500,1200 L600,1200 L600,1000 L700,1000 L700,800 L800,800 L800,600 L600,600 L600,800 L500,800 L500,1000 L400,1000 L400,800 L300,800 L300,600 L100,600 L100,800 L200,800"/>
            <glyph glyph-name="⌃" unicode="&#x2303;" horiz-adv-x="800" d=" M700,400 L600,400 L600,200 L500,200 L500,0 L400,0 L400,200 L300,200 L300,400 L200,400 L200,600 L100,600 L100,800 L300,800 L300,600 L400,600 L400,400 L500,400 L500,600 L600,600 L600,800 L800,800 L800,600 L700,600"/>
            <glyph glyph-name="⌄" unicode="&#x2304;" horiz-adv-x="800" d=" M100,1200 L200,1200 L200,1000 L100,1000 M700,400 L800,400 L800,200 L700,200 M200,1000 L300,1000 L300,1200 L400,1200 L400,1000 L500,1000 L500,1200 L600,1200 L600,1000 L700,1000 L700,800 L600,800 L600,600 L700,600 L700,400 L600,400 L600,200 L500,200 L500,400 L400,400 L400,200 L300,200 L300,400 L200,400 L200,600 L300,600 L300,800 L200,800 M700,0 L600,0 L600,200 L700,200 M200,200 L100,200 L100,400 L200,400 M500,600 L500,800 L400,800 L400,600 M600,1200 L600,1400 L700,1400 L700,1200 M300,1400 L300,1200 L200,1200 L200,1400 M300,0 L200,0 L200,200 L300,200 M800,1000 L700,1000 L700,1200 L800,1200"/>
            <glyph glyph-name="⌘" unicode="&#x2318;" horiz-adv-x="800" d=" M100,1200 L400,1200 L400,1000 L300,1000 L300,800 L100,800 M700,400 L700,200 L800,200 L800,0 L600,0 L600,200 L500,200 L500,400 L400,400 L400,200 L300,200 L300,0 L100,0 L100,200 L200,200 L200,400 L300,400 L300,600 L400,600 L400,800 L500,800 L500,600 L600,600 L600,400 M800,800 L600,800 L600,1000 L500,1000 L500,1200 L800,1200"/>
            <glyph glyph-name="⌤" unicode="&#x2324;" horiz-adv-x="800" d=" M100,1400 L400,1400 L400,1200 L500,1200 L500,800 L600,800 L600,400 L800,400 L800,0 L500,0 L500,200 L400,200 L400,600 L300,600 L300,1000 L100,1000 M500,1400 L800,1400 L800,1000 L600,1000 L600,1200 L500,1200"/>
            <glyph glyph-name="⌥" unicode="&#x2325;" horiz-adv-x="800" d=" M100,1200 L100,200 L500,200 L500,0 L0,0 L0,1400 L500,1400 L500,1200 M700,400 L600,400 L600,600 L700,600 M200,1000 L300,1000 L300,800 L200,800 M800,800 L800,600 L700,600 L700,800 M700,800 L600,800 L600,1000 L700,1000 M500,1200 L600,1200 L600,1000 L500,1000 M400,1000 L500,1000 L500,800 L400,800 M300,600 L300,800 L400,800 L400,600 M200,400 L200,600 L300,600 L300,400 M500,600 L500,400 L400,400 L400,600 M600,200 L500,200 L500,400 L600,400"/>
            <glyph glyph-name="⌦" unicode="&#x2326;" horiz-adv-x="800" d=" M100,1400 L800,1400 L800,0 L100,0 M700,200 L700,1200 L600,1200 L600,800 L500,800 L500,1200 L400,1200 L400,800 L300,800 L300,1200 L200,1200 L200,200 L300,200 L300,600 L400,600 L400,200 L500,200 L500,600 L600,600 L600,200 M500,600 L400,600 L400,800 L500,800"/>
            <glyph glyph-name="⌧" unicode="&#x2327;" horiz-adv-x="800" d=" M700,200 L700,1200 L300,1200 L300,1400 L800,1400 L800,0 L300,0 L300,200 M200,1000 L200,800 L100,800 L100,1000 M600,600 L600,400 L500,400 L500,600 M400,1000 L400,800 L300,800 L300,1000 M300,600 L400,600 L400,400 L300,400 M100,600 L0,600 L0,800 L100,800 M200,200 L200,400 L300,400 L300,200 M200,400 L100,400 L100,600 L200,600 M500,600 L400,600 L400,800 L500,800 M300,1200 L300,1000 L200,1000 L200,1200 M600,800 L500,800 L500,1000 L600,1000"/>
            <glyph glyph-name="⌫" unicode="&#x232B;" horiz-adv-x="800" d=" M100,0 L100,400 L300,400 L300,800 L400,800 L400,1200 L500,1200 L500,1400 L800,1400 L800,1000 L600,1000 L600,600 L500,600 L500,200 L400,200 L400,0 M800,400 L800,0 L500,0 L500,200 L600,200 L600,400"/>
            <glyph glyph-name="⎇" unicode="&#x2387;" horiz-adv-x="800" d=" M100,1200 L200,1200 L200,1000 L100,1000 M700,400 L800,400 L800,200 L700,200 M200,1000 L300,1000 L300,800 L400,800 L400,1000 L300,1000 L300,1200 L400,1200 L400,1400 L500,1400 L500,1200 L600,1200 L600,1000 L500,1000 L500,800 L600,800 L600,1000 L700,1000 L700,400 L600,400 L600,600 L500,600 L500,400 L600,400 L600,200 L500,200 L500,0 L400,0 L400,200 L300,200 L300,400 L400,400 L400,600 L300,600 L300,400 L200,400 M800,1000 L700,1000 L700,1200 L800,1200 M200,200 L100,200 L100,400 L200,400"/>
            <glyph glyph-name="⎈" unicode="&#x2388;" horiz-adv-x="800" d=" M700,400 L700,600 L600,600 L600,800 L700,800 L700,1000 L800,1000 L800,400 M700,200 L600,200 L600,400 L700,400 M200,1000 L200,800 L300,800 L300,600 L200,600 L200,400 L100,400 L100,1000 M600,600 L600,400 L500,400 L500,600 M300,600 L400,600 L400,400 L300,400 M200,200 L200,400 L300,400 L300,200 M700,1000 L600,1000 L600,1200 L700,1200 M400,400 L500,400 L500,200 L600,200 L600,0 L300,0 L300,200 L400,200 M600,1200 L300,1200 L300,1400 L600,1400 M300,1200 L300,1000 L200,1000 L200,1200"/>
            <glyph glyph-name="⎉" unicode="&#x2389;" horiz-adv-x="800" d=" M700,400 L700,200 L600,200 L600,400 M200,1000 L200,400 L100,400 L100,1000 M800,400 L700,400 L700,1000 L800,1000 M600,600 L500,600 L500,800 L400,800 L400,600 L300,600 L300,1000 L600,1000 M700,1000 L600,1000 L600,1200 L700,1200 M200,200 L200,400 L300,400 L300,200 M500,600 L500,200 L600,200 L600,0 L300,0 L300,200 L400,200 L400,600 M600,1200 L300,1200 L300,1400 L600,1400 M300,1200 L300,1000 L200,1000 L200,1200"/>
            <glyph glyph-name="⎊" unicode="&#x238A;" horiz-adv-x="800" d=" M100,1400 L400,1400 L400,1200 L300,1200 L300,1000 L200,1000 L200,800 L100,800 M700,400 L700,200 L600,200 L600,400 M800,400 L700,400 L700,1000 L800,1000 M500,1400 L600,1400 L600,1200 L500,1200 M400,1000 L400,800 L300,800 L300,1000 M100,600 L200,600 L200,400 L100,400 M700,1000 L600,1000 L600,1200 L700,1200 M200,200 L200,400 L300,400 L300,200 M500,600 L400,600 L400,800 L500,800 M600,200 L600,0 L300,0 L300,200"/>
            <glyph glyph-name="⎋" unicode="&#x238B;" horiz-adv-x="700" d=" M700,400 L700,200 L400,200 L400,1200 L500,1200 L500,400 M0,1200 L300,1200 L300,200 L200,200 L200,1000 L100,1000 L100,200 L0,200"/>
            <glyph glyph-name="␀" unicode="&#x2400;" horiz-adv-x="700" d=" M0,1200 L300,1200 L300,1000 L100,1000 L100,800 L300,800 L300,200 L0,200 L0,400 L200,400 L200,600 L0,600 M700,200 L600,200 L600,600 L500,600 L500,200 L400,200 L400,1200 L500,1200 L500,800 L600,800 L600,1200 L700,1200"/>
            <glyph glyph-name="␁" unicode="&#x2401;" horiz-adv-x="700" d=" M700,200 L600,200 L600,600 L700,600 M700,800 L600,800 L600,1200 L700,1200 M600,600 L500,600 L500,800 L600,800 M500,1200 L500,800 L400,800 L400,1200 M0,200 L0,400 L200,400 L200,600 L0,600 L0,1200 L300,1200 L300,1000 L100,1000 L100,800 L300,800 L300,200 M500,600 L500,200 L400,200 L400,600"/>
            <glyph glyph-name="␂" unicode="&#x2402;" horiz-adv-x="700" d=" M700,200 L600,200 L600,600 L700,600 M700,800 L600,800 L600,1200 L700,1200 M600,600 L500,600 L500,800 L600,800 M500,1200 L500,800 L400,800 L400,1200 M0,200 L0,1200 L300,1200 L300,1000 L100,1000 L100,800 L200,800 L200,600 L100,600 L100,400 L300,400 L300,200 M500,600 L500,200 L400,200 L400,600"/>
            <glyph glyph-name="␃" unicode="&#x2403;" horiz-adv-x="700" d=" M0,1200 L300,1200 L300,1000 L100,1000 L100,800 L200,800 L200,600 L100,600 L100,400 L300,400 L300,200 L0,200 M400,1200 L700,1200 L700,1000 L600,1000 L600,200 L500,200 L500,1000 L400,1000"/>
            <glyph glyph-name="␄" unicode="&#x2404;" horiz-adv-x="700" d=" M0,1200 L300,1200 L300,1000 L100,1000 L100,800 L200,800 L200,600 L100,600 L100,400 L300,400 L300,200 L0,200 M400,1200 L700,1200 L700,0 L600,0 L600,200 L400,200 M600,400 L600,1000 L500,1000 L500,400"/>
            <glyph glyph-name="␅" unicode="&#x2405;" horiz-adv-x="700" d=" M700,200 L600,200 L600,600 L700,600 M200,1000 L100,1000 L100,800 L200,800 M700,800 L600,800 L600,1200 L700,1200 M600,600 L500,600 L500,200 L400,200 L400,1200 L500,1200 L500,800 L600,800 M0,200 L0,1200 L300,1200 L300,200 L200,200 L200,600 L100,600 L100,200"/>
            <glyph glyph-name="␆" unicode="&#x2406;" horiz-adv-x="700" d=" M700,400 L700,200 L400,200 L400,1200 L500,1200 L500,400 M0,1200 L300,1200 L300,800 L200,800 L200,1000 L100,1000 L100,800 L200,800 L200,600 L100,600 L100,400 L200,400 L200,600 L300,600 L300,200 L0,200"/>
            <glyph glyph-name="␇" unicode="&#x2407;" horiz-adv-x="700" d=" M700,200 L400,200 L400,400 L600,400 L600,600 L400,600 L400,1200 L700,1200 L700,1000 L500,1000 L500,800 L700,800 M200,1000 L100,1000 L100,800 L200,800 L200,600 L100,600 L100,400 L200,400 L200,600 L300,600 L300,200 L0,200 L0,1200 L300,1200 L300,800 L200,800"/>
            <glyph glyph-name="␈" unicode="&#x2408;" horiz-adv-x="700" d=" M100,1200 L100,800 L200,800 L200,1200 L300,1200 L300,200 L200,200 L200,600 L100,600 L100,200 L0,200 L0,1200 M400,1200 L700,1200 L700,1000 L600,1000 L600,200 L500,200 L500,1000 L400,1000"/>
            <glyph glyph-name="␉" unicode="&#x2409;" horiz-adv-x="700" d=" M100,1200 L100,400 L300,400 L300,200 L0,200 L0,1200 M600,600 L500,600 L500,200 L400,200 L400,1200 L700,1200 L700,1000 L500,1000 L500,800 L600,800"/>
            <glyph glyph-name="␊" unicode="&#x240A;" horiz-adv-x="700" d=" M100,1200 L100,600 L0,600 L0,1200 M200,1200 L300,1200 L300,600 L200,600 M400,1200 L700,1200 L700,1000 L600,1000 L600,200 L500,200 L500,1000 L400,1000 M100,200 L100,600 L200,600 L200,200"/>
            <glyph glyph-name="␋" unicode="&#x240B;" horiz-adv-x="700" d=" M0,1200 L300,1200 L300,1000 L100,1000 L100,800 L200,800 L200,600 L100,600 L100,200 L0,200 M600,600 L500,600 L500,200 L400,200 L400,1200 L700,1200 L700,1000 L500,1000 L500,800 L600,800"/>
            <glyph glyph-name="␌" unicode="&#x240C;" horiz-adv-x="700" d=" M0,1200 L300,1200 L300,1000 L100,1000 L100,400 L300,400 L300,200 L0,200 M700,200 L600,200 L600,600 L700,600 M700,800 L600,800 L600,1000 L500,1000 L500,800 L600,800 L600,600 L500,600 L500,200 L400,200 L400,1200 L700,1200"/>
            <glyph glyph-name="␍" unicode="&#x240D;" horiz-adv-x="700" d=" M0,1200 L300,1200 L300,1000 L100,1000 L100,800 L300,800 L300,200 L0,200 L0,400 L200,400 L200,600 L0,600 M700,200 L400,200 L400,1200 L700,1200 M600,400 L600,1000 L500,1000 L500,400"/>
            <glyph glyph-name="␎" unicode="&#x240E;" horiz-adv-x="700" d=" M700,400 L700,200 L400,200 L400,400 L500,400 L500,1000 L400,1000 L400,1200 L700,1200 L700,1000 L600,1000 L600,400 M0,1200 L300,1200 L300,1000 L100,1000 L100,800 L300,800 L300,200 L0,200 L0,400 L200,400 L200,600 L0,600"/>
            <glyph glyph-name="␏" unicode="&#x240F;" horiz-adv-x="700" d=" M700,400 L700,200 L400,200 L400,1200 L700,1200 L700,1000 L500,1000 L500,800 L600,800 L600,600 L500,600 L500,400 M0,1200 L200,1200 L200,1000 L100,1000 L100,400 L200,400 L200,200 L0,200 M200,1000 L300,1000 L300,400 L200,400"/>
            <glyph glyph-name="␐" unicode="&#x2410;" horiz-adv-x="700" d=" M700,400 L700,200 L400,200 L400,400 L500,400 L500,800 L400,800 L400,1000 L500,1000 L500,1200 L600,1200 L600,400 M0,1200 L200,1200 L200,1000 L100,1000 L100,400 L200,400 L200,200 L0,200 M200,1000 L300,1000 L300,400 L200,400"/>
            <glyph glyph-name="␑" unicode="&#x2411;" horiz-adv-x="700" d=" M700,400 L700,200 L400,200 L400,800 L600,800 L600,1000 L400,1000 L400,1200 L700,1200 L700,600 L500,600 L500,400 M0,1200 L200,1200 L200,1000 L100,1000 L100,400 L200,400 L200,200 L0,200 M200,1000 L300,1000 L300,400 L200,400"/>
            <glyph glyph-name="␒" unicode="&#x2412;" horiz-adv-x="700" d=" M0,1200 L200,1200 L200,1000 L100,1000 L100,400 L200,400 L200,200 L0,200 M700,200 L400,200 L400,400 L600,400 L600,600 L500,600 L500,800 L600,800 L600,1000 L400,1000 L400,1200 L700,1200 M200,1000 L300,1000 L300,400 L200,400"/>
            <glyph glyph-name="␓" unicode="&#x2413;" horiz-adv-x="700" d=" M0,1200 L200,1200 L200,1000 L100,1000 L100,400 L200,400 L200,200 L0,200 M700,200 L600,200 L600,600 L400,600 L400,1200 L500,1200 L500,800 L600,800 L600,1200 L700,1200 M200,1000 L300,1000 L300,400 L200,400"/>
            <glyph glyph-name="␔" unicode="&#x2414;" horiz-adv-x="700" d=" M0,1200 L300,1200 L300,200 L200,200 L200,1000 L100,1000 L100,200 L0,200 M700,200 L600,200 L600,600 L700,600 M700,800 L600,800 L600,1200 L700,1200 M400,1200 L500,1200 L500,800 L600,800 L600,600 L500,600 L500,200 L400,200"/>
            <glyph glyph-name="␕" unicode="&#x2415;" horiz-adv-x="700" d=" M0,1200 L300,1200 L300,1000 L100,1000 L100,800 L300,800 L300,200 L0,200 L0,400 L200,400 L200,600 L0,600 M700,200 L600,200 L600,1000 L500,1000 L500,200 L400,200 L400,1200 L700,1200"/>
            <glyph glyph-name="␖" unicode="&#x2416;" horiz-adv-x="700" d=" M700,200 L400,200 L400,1200 L700,1200 L700,800 L600,800 L600,1000 L500,1000 L500,800 L600,800 L600,600 L500,600 L500,400 L600,400 L600,600 L700,600 M0,200 L0,1200 L300,1200 L300,1000 L100,1000 L100,800 L200,800 L200,600 L100,600 L100,400 L300,400 L300,200"/>
            <glyph glyph-name="␗" unicode="&#x2417;" horiz-adv-x="700" d=" M0,1200 L300,1200 L300,1000 L100,1000 L100,400 L300,400 L300,200 L0,200 M700,200 L600,200 L600,1000 L500,1000 L500,200 L400,200 L400,1200 L700,1200"/>
            <glyph glyph-name="␘" unicode="&#x2418;" horiz-adv-x="700" d=" M0,1200 L300,1200 L300,1000 L100,1000 L100,800 L200,800 L200,600 L100,600 L100,400 L300,400 L300,200 L0,200 M700,200 L600,200 L600,800 L500,800 L500,200 L400,200 L400,1200 L500,1200 L500,1000 L600,1000 L600,1200 L700,1200"/>
            <glyph glyph-name="␙" unicode="&#x2419;" horiz-adv-x="700" d=" M700,200 L400,200 L400,1200 L700,1200 L700,800 L600,800 L600,1000 L500,1000 L500,800 L600,800 L600,600 L500,600 L500,400 L600,400 L600,600 L700,600 M0,200 L0,400 L200,400 L200,600 L0,600 L0,1200 L300,1200 L300,1000 L100,1000 L100,800 L300,800 L300,200"/>
            <glyph glyph-name="␚" unicode="&#x241A;" horiz-adv-x="700" d=" M700,400 L700,200 L400,200 L400,1200 L700,1200 L700,1000 L500,1000 L500,400 M0,1200 L300,1200 L300,1000 L100,1000 L100,800 L200,800 L200,600 L100,600 L100,400 L300,400 L300,200 L0,200"/>
            <glyph glyph-name="␛" unicode="&#x241B;" horiz-adv-x="700" d=" M0,1200 L300,1200 L300,1000 L100,1000 L100,800 L200,800 L200,600 L100,600 L100,200 L0,200 M700,200 L400,200 L400,400 L600,400 L600,600 L400,600 L400,1200 L700,1200 L700,1000 L500,1000 L500,800 L700,800"/>
            </font>
</defs>
</svg>
